<svg xmlns="http://www.w3.org/2000/svg" viewBox="0 0 400 400" height="400" width="400"><g transform="matrix(2,0,0,2,0,0)"><g><polygon points="81.48 108.36 94.51 100.01 162.17 114.28 148.05 125.02 81.48 108.36" fill="#c6c6c6"></polygon><path d="M71.9,182.1a101.46,101.46,0,0,0,14.48.23c7.39-.47,18.07.62,21.77-.23s.61,3.21,13.3,1.13c0,0,5.59.38,10,.28s4.92,2.37,4.73-2.08-.66-8.15-.66-9.57a53.27,53.27,0,0,0-.76-5.58l-44.23-11S81.18,172.91,71.9,182.1Z" fill="#edc294"></path><path d="M105.65,123.2a.52.52,0,1,1,.72.74C105.93,124.4,105.1,123.73,105.65,123.2Z" fill="#5479d6"></path><path d="M107.74,123.34c.32-.48,1.31.16.73.47C108,124.05,107.5,123.7,107.74,123.34Z" fill="#aad852"></path><path d="M109.4,124.17c.45-.08,1.1.28.95.84a.79.79,0,0,1-1.23.08A.53.53,0,0,1,109.4,124.17Z" fill="#52db93"></path><path d="M109.14,126c.77,0,1.39,1.2.53,1.56a.94.94,0,0,1-1.23-1.08A.73.73,0,0,1,109.14,126Z" fill="#a65aff"></path><path d="M107.81,127.28a.77.77,0,0,1-.84,1.16,1.07,1.07,0,0,1-1-.79C105.84,126.6,107.31,126.37,107.81,127.28Z" fill="#ffeb57"></path><path d="M104.8,124.86a.81.81,0,0,1,.1,1.61C103.62,126.55,103.47,124.84,104.8,124.86Z" fill="#ff55a2"></path><path d="M108.2,125.35a.74.74,0,0,1-.87.73c-.8-.14-1.18-.84-.92-1.32A1,1,0,0,1,108.2,125.35Z" fill="#50c1ff"></path><path d="M50.87,78.63c2.35,2,2.43,3.3,2.55,3.77A45.2,45.2,0,0,0,47,79.75a33.11,33.11,0,0,0-5.89-1.92,27.58,27.58,0,0,0-7.52-.35c-.22,0-.18,0-.12-.2a4.07,4.07,0,0,1,3.38-2.88c.45-.08.91-.13,1.36-.2,1.17-.18,3.85.57,5.07.88A20.5,20.5,0,0,1,50.87,78.63Z" fill="#d4f2e2"></path><path d="M194.15,116.07a1.18,1.18,0,0,1-.26.75c-1,1.21-40.92,52.49-41.58,53.29-.49.6-.12-.13-.18-6.72a1.59,1.59,0,0,1,.4-1.12c1.32-1.57,41.18-51.29,41.57-51.67,0,.08,0,.16.05.23C194.15,111.52,194.13,115,194.15,116.07Z" fill="#fff5db"></path><path d="M193.43,109.46c.31.05.32.08.13.31-.63.79-40.78,50.54-42,52.05a.65.65,0,0,1-.79.24c-2.49-.66-61.67-15.48-61.76-15.52.31-.26,20.67-11.85,20.77-11.91.71-.41.87-.51,1.36-.44s1-.3,1.4-.56a5.26,5.26,0,0,0,.86-.7.79.79,0,0,1,.82-.22c2,.55,23.83,6.09,24.76,6.33a1.57,1.57,0,0,0,1.44-.32c1.45-1.14,26.52-21.19,27.94-22.34.23-.19.26-.36.33-1a12,12,0,0,0,.1-1.8c-.07-.45.25-2,1-6.45.13-.69.12-.68.81-.58C171.71,106.66,193.21,109.42,193.43,109.46Z" fill="#fff5db"></path><path d="M178.38,51c.19,0,.21.09.17.27-.22,1.19-4.59,26.52-4.7,27.25-.06.46-.09.49-.56.55-.23,0-.48,0-.71,0s-.3-.11-.26-.31c.11-.69,4.36-25.3,4.46-26s-.12-1-.92-1.11c-1.56-.15-16.79-1.73-17-1.75s-.21-.2-.13-.54c.05-.17,0-.39.15-.48S158.94,49,178.38,51Z" fill="#c6c6c6"></path><path d="M175.62,52.69c.23,0,.33.13.28.37-.19,1-4.31,24.53-4.52,25.78-.06.37,0,.36-.45.38-3.73.19-4.48.27-4.66.58-.38.65.38,13.51.47,14.26.06.43.21.56.64.57.81,0,1.3-.26,1.22.21-.78,4.81-2.33,13.47-2.34,13.49,0,.25-.16.27-.35.23L97.38,95.26c-.39-.07-.41-.1-.35-.49.25-1.51,8-48.44,8.08-49.15.07-.39.09-.4.46-.37l28.58,3c.81.09.66.11.67.74,0,2.15-.2,2.93-.21,3.78,0,.37.61.63.78.15a16.82,16.82,0,0,0,.28-4.16c0-.21.08-.3.26-.29.45,0,.89.09,1.33.12.18,0,.23.09.22.26a22.24,22.24,0,0,1-.17,2.45c-.06.53.58.74.76.31a9.16,9.16,0,0,0,.25-2.58c0-.2,0-.33.3-.29,1.34.16,16,1.69,16.08,1.7s.27.11.25.32a13.93,13.93,0,0,0,.2,3.93.33.33,0,0,0,.42.18c.55-.23-.11-1.41.13-3.94,0-.39,0-.39.42-.35l1.27.13c.21,0,.31.1.31.36s.07,2.6.13,2.71c.19.29.51.27.55,0a11.46,11.46,0,0,0,.11-2.63c0-.26.12-.35.38-.32S175.51,52.69,175.62,52.69ZM169,73.17c.55,0,1.06-.32.95-1,0,0-1.05-12.89-1.14-13.72,0-.41-.19-.53-.6-.51-.56,0-19.45,1.81-19.74,1.86a.7.7,0,0,0-.71.84c0,.56,1.43,12.35,1.57,13.48a.84.84,0,0,0,.62.6C150.79,74.74,149.8,74.75,169,73.17Zm-8,19.14c.08-.42.13-.75-.38-.88s-16-3.21-17.79-3.54a.7.7,0,0,0-.95.62c-2.41,11.79-2.34,11.43-2.37,11.82,0,.92.49,1,.83,1.09,1.31.41,5.58,1.19,17.27,3.49.61.12.85.16,1-.45C158.92,102.8,160.77,93.39,161,92.31Zm-13-7.06c1.4-.79.92-2.24.66-3.38s-6.13-17.87-8.6-23.65a2.94,2.94,0,0,0-.82-1.1,1.89,1.89,0,0,0-2.49,0C135,58.53,123.67,73,122.3,74.78c-.87,1.12-1.85,2.25-1.91,3.11s.37,1.69,2,2.13c1,.25,21.28,4.82,23.81,5.35A2.53,2.53,0,0,0,148,85.25ZM128.86,97.41c.65,0,.83,0,.81-.79,0-.1,0-9-.08-11.06,0-.64-.09-.83-.74-.89-.2,0-14.11-.14-15.69-.14a.54.54,0,0,0-.62.52c0,.16.09,10.18.11,11s.06.76,1.25.82S126.93,97.37,128.86,97.41Zm-.71-42.31c.12-.45,0-.66-.36-.76-1.43-.36-18.76-4.65-19.18-4.73s-.59,0-.72.44c0,.15,0,.3-.09.45-3.12,12.43-3,11.7-2.85,12.26a.89.89,0,0,0,.6.55c.1,0,17.07,4.92,18.07,5.12a.7.7,0,0,0,.85-.48C124.61,67.6,128.09,55.34,128.15,55.1ZM116.7,71.88c0-1-.34-.92-1.14-.92-1.77,0-12-.27-12.56-.2s-.52.61-.52.91c0,2.73-.16,8.18-.16,9.2,0,.56.32.55.88.57,9.84.33,11.3.53,12.75.41.49,0,.53-.19.58-1.25C116.58,78.5,116.68,73.19,116.7,71.88Z" fill="#ff8e92"></path><path d="M171.05,94.73c-.18,1-2.86,16.43-3.06,17.64,0,.22-.1.29-.33.25-.06,0-72.09-14.5-73.09-14.67-.18,0-.22-.11-.19-.28.29-1.73,8.77-54.08,8.84-54.5,0-.24.16-.29.39-.26,1.27.16,29.88,3.23,30.53,3.33s.55.09.58.71a1.67,1.67,0,0,0,0,.19c0,.22-.08.27-.27.26-.39,0-28.68-3-29.46-3.08-.49,0-.77.17-.71.65a7,7,0,0,1-.2,1.72c-.12,1-7.9,47.68-8.06,48.62-.07.43,0,.63.5.72s62.41,12.26,69.86,13.68c.42.08.63,0,.7-.47.16-1,2.06-12,2.33-13.53.18-1,0-1.24.47-1.24C170.71,94.47,171.13,94.28,171.05,94.73Z" fill="#c6c6c6"></path><path d="M167.77,114.33c.2-.19.17.06.16.11a9,9,0,0,1-.16,1.11,1.94,1.94,0,0,1-.62.59c-1.16.9-26.72,21.57-26.8,21.64-.26.21-.14-.48-.14-1.42,0-.42-.75.49,26.7-21.39A10.65,10.65,0,0,0,167.77,114.33Z" fill="#c6c6c6"></path><path d="M157.79,48.77c.2,0,.23.09.2.24a5.38,5.38,0,0,1-.12.7.24.24,0,0,1-.21.14c-.56-.05-1.11-.12-1.67-.2,0,0-.1-.1-.1-.16a2.76,2.76,0,0,1,.06-.4c.07-.46.07-.46.54-.45S157.35,48.75,157.79,48.77Z" fill="#c6c6c6"></path><path d="M154.94,48.5c.22,0,.32.1.26.47-.1.57-.1.56-.68.5-1.81-.17-15.36-1.6-15.92-1.62s-.3-.11-.4-1.13C152.09,48.09,154.28,48.44,154.94,48.5Z" fill="#c6c6c6"></path><path d="M150.56,163c.43.1.76.36.74.81,0,1-.1,5.24-.11,6.3,0,.44,0,.45-.43.34-.1,0-71.5-18.77-71.66-18.89,0,0,.07-.08.11-.1,2-.86,8.1-4,8.12-4a.86.86,0,0,1,.68-.09Z" fill="#fff5db"></path><path d="M148,82.88c.23.94-.23,1.93-1.95,1.47-4.71-1.25-18.41-4-22.87-5a3.37,3.37,0,0,1-1.88-.86.85.85,0,0,1,0-.91c.62-1.19,14.72-18.65,15.87-19.65a1.15,1.15,0,0,1,1.6.13C139.91,59.3,147.25,79.63,148,82.88Zm-8.89-18.56c.16-.58,0-.73-.55-.82-2.81-.39-3.75-.85-3.74.39,0,.68-.57,5.79-.86,8.38a18.26,18.26,0,0,0-.14,2c.06.29.31.41,1.34.56.81.13.79.11,1.05-.7S138.91,65.16,139.15,64.32Zm-3.39,14.75c0-.37,0-1.84,0-2.2s-.12-.57-.56-.65l-1.11-.17c-.43-.06-.6,0-.75.44-.26.67-.5,1.34-.73,2s-.14.63,2.37,1.2C135.49,79.82,135.75,79.61,135.76,79.07Z" fill="#ffd152"></path><path d="M139.21,136.26c.18,0,.23.11.21.27a8.51,8.51,0,0,1-.07,1.43c0,.28,0,.28-.34.2-3.14-.82-24.6-6.28-24.82-6.41.27-.19,1.1-.69,1.68-1.1a.7.7,0,0,1,.63-.09Z" fill="#c6c6c6"></path><path d="M137.32,46.65a3.82,3.82,0,0,1,.07,1c0,.18-.38,0-1.55-.09-.17,0-.18-.11-.19-.24-.05-.88-.22-.87.22-.86A7.77,7.77,0,0,1,137.32,46.65Z" fill="#c6c6c6"></path><path d="M130.5,123.24a.67.67,0,0,1,.07.48c-.54,1.6.39,4.27-.8,3.86-.55-.19-.81-.42-.84-1a5.48,5.48,0,0,0-.53-2.83.4.4,0,0,0-.18-.16,4.7,4.7,0,0,0-2.59-.62c-2.74.66-3.08.57-4.08,1.89-2.39,3.15-4.68,3.81-7.44,5.84-.16.12-.18.05-.21-.09a7,7,0,0,0-1.91-3.13c-.15-.12-.18-.2-.07-.37a1.76,1.76,0,0,0-.17-2.4,6.51,6.51,0,0,0-2.08-1.6c-.17-.09-.16-.15-.06-.25a50.3,50.3,0,0,0,5.55-6.2c.65-.78.53-.85,3.37-2.24a3.07,3.07,0,0,1,1.73-.37,7.51,7.51,0,0,1,.94.21s0,.11,0,.12c-.75.46-1.37.57-2.69,1.43-.4.22-.11.89.56.64a3.36,3.36,0,0,0,.68-.35c2.06-1.31,3.34-1,4.58-1.43a1.83,1.83,0,0,1,1.77,1.19c0,.23-.09.3-.29.35a29.6,29.6,0,0,0-4.28,1.12c-.48.19-.09.77.62.62,3.93-.81,3.83-.89,4.49-1a2.55,2.55,0,0,1,1.8.42c1.21.8,1.07,1.45,1.31,3,0,.1,0,.41-.29.19A7.31,7.31,0,0,0,128,120c-.1-.06-.13-.28-.19-.4s-.15-.38-.24-.56a.42.42,0,1,0-.75.36l.13.37a6.49,6.49,0,0,0-2.24,0c-.43.16,0,.52.45.58a17.11,17.11,0,0,1,3.46.76C129.35,121.32,130.13,122.56,130.5,123.24Z" fill="#ffc6a6"></path><path d="M110.35,133c.08.24,0,.28-.14.35-29.46,16.47-17.6,10-23,13-1.91,1-11.53,6-14.36,6-6.89-.14-10.36-4.33-15-11.19-.14-.22-2-3.09-2.1-3.35a.82.82,0,0,0-.5-.6c-.24-.08-.2-.17-.08-.31C65.31,126.25,65.33,128.14,69.9,125c.14-.1.21-.16.33,0,1,1.72,3.67,7.5,5.64,9.15a2.3,2.3,0,0,0,2,.38,35.39,35.39,0,0,0,4.2-.94c6.18-1.87,4.62.31,18.56-5.29.61-.25,1.21-.55,1.81-.84s.48-.24.84.13a14.72,14.72,0,0,0,3.64,2.32c1,.46,1.59-.16,2,.25A7.89,7.89,0,0,1,110.35,133Zm-11.31,1a.3.3,0,0,0-.05-.15,2.26,2.26,0,0,0-3-1.35,2,2,0,0,0-1.21.88,1.93,1.93,0,0,0-.3,1.46c.11.45-.24.31-2.6,1.42-.36.17-.32-.08-.78-.8-.18-.3-.26-.32-.53-.19s-.4.28-.1.81c.36.71.36.71-.38,1-.5.17-.27,0-.91-.86a.3.3,0,0,0-.49,0,.43.43,0,0,0-.14.55c.1.2.2.4.32.59s-.1.31-1,.65c-.11.05-.17.05-.24-.08s-.29-.49-.43-.75a.41.41,0,0,0-.78.26,5.64,5.64,0,0,0,.34.73c.19.33-.1.28-1.15.73-1.51.66-2.44,1.1-2.61,1.13.06-.23.13-.21.23-.35a3,3,0,0,0,.53-1.94c0-.34-.29-.62-.57-.6-.5,0-1.23.26-1.08.73a.42.42,0,0,0,.5.27c.3,0,.21.14.17.28-.28,1-.77,1.27-1.31,2.05a.71.71,0,0,0,.54,1.17,9.88,9.88,0,0,1,3.07.64c.09,0,.14.15.2.23a1.84,1.84,0,0,0-.22.17c-.13.12-.35.24-.36.38s.15.32.29.43a.57.57,0,0,0,.39.07,1,1,0,0,0,.65-1.67c-.71-.9-1.88-.73-2.6-1,.35-.26,3.13-1.37,3.53-1.54a.34.34,0,0,1,.52.21,4.21,4.21,0,0,0,.34.63.35.35,0,0,0,.48.17c.38-.18.39-.34.29-.59s-.25-.57-.37-.86c.3-.14.62-.27.92-.43s.13,0,.58.75c.17.26.34.29.65.14s.2-.32.13-.52c-.24-.77-.53-.74,0-1,1.1-.47.54-.13,1.28.73.18.21.37.2.64,0s.18-.31.1-.5c-.34-.78-.68-.91-.23-1.12s1.09-.54,1.66-.78c.86-.36.66-.39,1.28.19a2.41,2.41,0,0,0,3.31-.25C99.16,135.54,99,134.77,99,134.05Z" fill="#ffc6a6"></path><path d="M167,113.45C90.65,98.27,94.4,98.52,93.75,98.94c-1,.62-21.83,13-23.49,14-.19.11-.23.19-.17.4,1.88,5.73.63,2.19,1.75,4.89.2.46-1.39-.23,30.18,7.8.31.08.35.07.45-.28a3.36,3.36,0,0,1,.66-1.37,9.35,9.35,0,0,1,2.09-1.88,3,3,0,0,1,1.19-.44,4.8,4.8,0,0,1,2,.36c.38.11.35.13.63-.16,2.36-2.61,1.81-1.68,4.68-5.19.08-.1,0-.16-.26-.24l-31.91-8c-.3-.08-.31-.35-.37-.57s.15-.29.32-.39c0,0,11-6.81,12.46-7.64a1,1,0,0,1,.57-.18s1,.28,67.08,13.72c1,.2.89.8.26,1.3-1.22,1-12.06,9.42-13,10.19a1.3,1.3,0,0,1-1.29.18c-17.76-4.37-16.7-4.25-16.79-4s-.1.38,0,.47a5.35,5.35,0,0,1,.59,1.07,1.07,1.07,0,0,1,.14.72c-.23,1.16-.19.4-.19,3.35h0c0,1.35-.68,1.78-1.59,1.57a1.43,1.43,0,0,1-.34-.09c-.54-.25-1.05-.55-1.15-1.2-.18-1.15-.14-2.16-.34-2.77a.39.39,0,0,0-.24-.21c-1-.4-1.39-.53-1.91-.39l-2.8.76a.35.35,0,0,0-.2.18c-1.2,2.49-5.07,4.76-5.09,4.78a2.18,2.18,0,0,0-.22.21c.88.35,17.43,4.38,21.62,5.49a1.1,1.1,0,0,0,1.1-.23c.34-.29,26.52-21,27-21.39C167.31,113.47,167.07,113.47,167,113.45Zm-58.64,3.39c.32.12.39.37.13.61-1.67,1.55-7.1,6-7.68,6.42a2.38,2.38,0,0,1-.45.23c-3.91-.85-16.73-4.27-28.33-7.18-.69-.1-.62-.88.16-.69.58.14,27.42,7,27.82,7.08a.53.53,0,0,0,.55-.12c1.31-1.1,6.84-5.59,6.94-5.68s.16-.13,0-.18c0,0-26.27-7-27-7.23a.49.49,0,0,0-.47,0c-1.55,1-8.17,4.94-8.38,5a.3.3,0,0,1-.33-.43c.14-.28.1-.12,8.19-4.9.46-.28.54-.43,1.06-.3C80.6,109.48,108.25,116.8,108.35,116.84Z" fill="#c6c6c6"></path><path d="M101.33,126.75c.06,0,.17.08,0,.17l-.18.1a11.42,11.42,0,0,1-2.21.9s-23.59-6.06-25.14-6.41a.82.82,0,0,1-.63-.52c-.16-.4-.41-.75-.6-1.13s-.07-.31.2-.25S101.22,126.71,101.33,126.75Z" fill="#a9a9a9"></path><path d="M98.1,134.57c0,.2,0,.45-.06.7a1.09,1.09,0,0,1-1.1.81,1.46,1.46,0,0,1-1.33-2.28,1.34,1.34,0,0,1,1.79-.31C98,133.93,98.07,133.83,98.1,134.57Z" fill="#ffc6a6"></path><path d="M97.22,128.39a.57.57,0,0,1,.16.15.64.64,0,0,1-.16.11c-11.46,4.06-8.44,2.33-15.13,4-.41.1-5,1-5,1a.73.73,0,0,1-.44-.19,11,11,0,0,1-2.54-3.41,23.61,23.61,0,0,1-1.7-3c-.16-.42-.09-.59,0-.76.4-.57,2-2.23,1.75-3.56a.43.43,0,0,1,0-.19C75.35,122.78,97.14,128.36,97.22,128.39Z" fill="#fff5db"></path><path d="M93.38,96.41c.27,0,.33.11.26.4s-.14.84-.22,1.26a.46.46,0,0,1-.17.28c-24.4,14.12-23.41,14.14-23.62,13.6-2.09-5.48-2.64-5.63-4-8.54,0,0-2.06-4.66-1.6-4.92,9.68-5.48,8.24-4.7,8.57-4.82C73.18,93.75,92.23,96.27,93.38,96.41Z" fill="#fff5db"></path><path d="M76.22,27c1,.26.79.66.75.82s-.14.13-.34.08c-5.34-1.49-28.38,5.12-43.89,13.69-.31.18-.46.23-.52.13-.35-.68,17.2-10.33,33.78-14C70.45,26.7,74.12,26.49,76.22,27Z" fill="#ff8e92"></path><path d="M76.29,28.82c.26.13.31.3.11.53C73.25,32.73,65,36,63,36.89c-.15.07-.17,0-.21-.07-.18-.4-.37-.8-.53-1.21a.43.43,0,0,1,.1-.35,3.48,3.48,0,0,0,1-2.07,2.42,2.42,0,0,0-.55-2.1c-.2-.22-.19-.27.11-.34C64.74,30.29,74.27,27.78,76.29,28.82Z" fill="#606060"></path><path d="M61.45,36.44a45.94,45.94,0,0,1,4,21.15c0,.37-.05.38-.4.22-1.22-.57-1.79-.5-4-.63l-.16,0a.76.76,0,0,1,.09-.18,4,4,0,0,0,1.5-3.17,2.36,2.36,0,0,0-3.31-2.33c-1.22.46-1.54.72-2.18.65a.41.41,0,0,1-.26-.2,4.29,4.29,0,0,1-.13-.6.42.42,0,0,0-.39-.4c-.74,0-.83,1.78.48,2.21A2.32,2.32,0,0,0,58.29,53,6.76,6.76,0,0,1,60,52.4c.84-.14,1.44.78,1.39,1.48a3.19,3.19,0,0,1-2.63,3,37.08,37.08,0,0,0-6.22,1.71A7,7,0,0,0,48.7,61.5c-.42.64-1.1,1.91-2.32,1-1.82-1.31-1.8-.5-3.38-2.05a1.23,1.23,0,0,0-1.88,0c-1,1-1.84,2.11-1.07,3.33,2.81,4.49,7.39,9.67,12.55,10.58.23,0,.27.14.22.3a25.29,25.29,0,0,0-.56,3.62c-.09.84-.82-1.91-7.92-4a17.56,17.56,0,0,0-6.07-1.08c-.17,0-.24,0-.2-.22.36-2.41,1.3-7.23.1-9.34A.88.88,0,0,1,38,63a.56.56,0,0,0-1-.48c-2,2-2.16,1.88-2.86,1.83A8.61,8.61,0,0,1,32.46,64c-.05,0-.08-.07-.12-.11s-.05-.08.92-.19a.47.47,0,0,0,0-.94,2.4,2.4,0,0,0-1.71.36.33.33,0,0,1-.49-.06,6.35,6.35,0,0,1-1.7-3.57c-.14-1.64.14-3.11,1.58-3.91a3.12,3.12,0,0,1,1.12-.31c1.52-.19,1.53.41,2.51.55a.7.7,0,0,0,.53-.17c.43-.41-1.19-1.63-2.94-1.51-.18,0-.19,0-.27-.16a21.11,21.11,0,0,1-1.74-3.7,13.83,13.83,0,0,1-.72-4.81c0-.18.2-.35.34-.5A9.8,9.8,0,0,1,32,43.2c5.81-3.79,15.09-7.09,15.9-7.48.19-.09.32-.09.33.19a2.35,2.35,0,0,0,3.71,1.83.38.38,0,0,1,.54,0,1.3,1.3,0,0,0,1.66.26c.12-.07.25-.11.38-.17a.24.24,0,0,1,.35.09,1.75,1.75,0,0,0,2,.8,2,2,0,0,0,1.82-2.1c0-.16,0-.23.22-.18a3,3,0,0,0,2-.24C61.26,36.09,61.31,36.12,61.45,36.44ZM62.34,42a.87.87,0,0,0,0-.77,2.81,2.81,0,0,0-2.44-1.58,5.06,5.06,0,0,0-1,.32,1.74,1.74,0,0,0-.88,1.4c0,.29,0,.35.33.41s.39-.1.51-.3a1.2,1.2,0,0,1,1.24-.72c.66.07,1.06.58,1.39,1.21A.5.5,0,0,0,62.34,42Zm-1.72,6.7c-.21-.79-.16-1-.88-1.07-.32,0-.36.24-.45.46-.2.52,0,1.27.53,1.33S60.56,49.2,60.62,48.65Zm-6.81-7.47c-1.8-2-5.94-.73-6.1,2.13.08.23.15.48.23.71,0,0,.11.13.14.12a1.12,1.12,0,0,0,.43-.16.47.47,0,0,0,.11-.31A2.13,2.13,0,0,1,49.48,42a2.75,2.75,0,0,1,3.57-.1c.2.14.44.22.62.07S54,41.38,53.81,41.18Zm-1.07,9.75a1.66,1.66,0,0,0-.37-1.65.62.62,0,0,0-.87.11,1.84,1.84,0,0,0-.24.75,1.37,1.37,0,0,0,.32.91A.7.7,0,0,0,52.74,50.93ZM40.51,55.86A.42.42,0,0,0,41,55.4c0-.36-.19-.58-.5-.58a.42.42,0,0,0-.48.39C40,55.36,40.05,55.85,40.51,55.86Zm0-2.33c.55,0,.54-.86.07-.84s-.43.1-.42.37S40.3,53.54,40.51,53.53Zm-1.06.5A.46.46,0,0,0,39,53.5a.37.37,0,0,0-.42.39c0,.23.22.59.39.6A.49.49,0,0,0,39.45,54Zm-.05-4.86c0-.19-.18-.34-.42-.33a.37.37,0,1,0,.12.74C39.37,49.57,39.37,49.34,39.4,49.17Zm0-2.35c0-.38-.15-.55-.5-.56s-.36.06-.38.44.19.59.44.58A.44.44,0,0,0,39.38,46.82Zm0,4.83a.47.47,0,0,0-.46-.55c-.6,0-.63.93,0,1A.43.43,0,0,0,39.34,51.65Zm-.19,4.7q0-.52-.45-.54a.41.41,0,0,0-.47.33c-.06.33.22.69.43.69A.49.49,0,0,0,39.15,56.35ZM37.67,41.54c-.59,0-.7,1,0,1.12S38.36,41.55,37.67,41.54Zm.48,3.32a.55.55,0,0,0-.49-.6.43.43,0,0,0-.46.4c0,.31.36.73.56.72S38.15,45.24,38.15,44.86ZM38,47.55a.4.4,0,0,0-.42-.46c-.27,0-.4.13-.4.41a.5.5,0,0,0,.4.51A.41.41,0,0,0,38,47.55Zm-.86,5.28c.28,0,.47-.21.47-.54s-.17-.59-.47-.57-.44.21-.43.57A.5.5,0,0,0,37.13,52.83Zm0-2.5c.3,0,.45-.15.44-.43,0-.59-.9-.6-.91-.06C36.67,50.2,36.85,50.34,37.15,50.33Zm.13,4.75c0-.74-.81-.72-.87-.25a.54.54,0,0,0,.48.63A.35.35,0,0,0,37.28,55.08Zm-1.34-9a.57.57,0,0,0-.58-.62c-.62,0-.63,1,.06,1.14A.53.53,0,0,0,35.94,46.05Zm-.16-2.94c0-.25-.16-.4-.46-.42s-.38.09-.39.39.12.5.41.51S35.76,43.48,35.78,43.11Zm-.16,19.62c.6-.15.56-1-.12-.92-1.12.15-1.11-.44-.78-.84.92-1.1.72-2,.26-2.53a4.62,4.62,0,0,0-2.53-1.64c-1.14-.24-2.16.68-1.55,2.34.12.41.84.52.85-.11s-.25-1.25.33-1.24c.79,0,2.64,1.37,2.22,2.1-.34.56-1,1-.75,1.86S34.26,63.06,35.62,62.73Zm-.45-13.57a.54.54,0,0,0,.54-.48c0-.46-.18-.67-.52-.66C34.59,48,34.55,49.16,35.17,49.16Zm.25,1.72c0-.31-.14-.44-.43-.43s-.47.17-.46.47A.45.45,0,1,0,35.42,50.88ZM35,53.79c.32,0,.42-.11.41-.44s-.18-.51-.5-.49-.4.19-.4.49S34.63,53.8,35,53.79Zm-1.28-9.42c0-.38-.13-.56-.47-.58a.41.41,0,0,0-.49.32c-.07.3.24.75.44.75A.52.52,0,0,0,33.68,44.37Zm-.1,5.41c.1-.66-.91-1-.94-.26a.67.67,0,0,0,.44.66A.46.46,0,0,0,33.58,49.78ZM33,47.5a.51.51,0,0,0,.53-.54c0-.64-1-.71-1.05-.14A.63.63,0,0,0,33,47.5Zm-.26,4.89c.27,0,.48-.14.44-.38s-.12-.44-.42-.46-.34.12-.34.4S32.56,52.4,32.74,52.39Zm-1.41-2.21c-.29,0-.28.17-.26.34s.13.49.34.48A.42.42,0,0,0,31.33,50.18Zm0-4.51c0-.39-.12-.56-.43-.56a.51.51,0,0,0-.08,1C31.24,46.11,31.33,46,31.34,45.67Zm-.64,2.95a.39.39,0,0,0,.4-.42c0-.24-.19-.48-.37-.47s-.36.19-.36.46S30.49,48.62,30.7,48.62Z" fill="#ffc6a6"></path><path d="M65.15,59.05a.3.3,0,0,1,.07.25c-.29,3.94-2.14,9.59-5.34,12.21-6.49,5.31-14.57-1-19-8.34a.67.67,0,0,1,0-.73c.33-.47.71-.91,1.08-1.35.11-.14.24,0,.34.06,1.44,1.33,1.84,1.12,3.48,2.07a2.87,2.87,0,0,0,2.25.34c.8-.21.93-.71,2.33-2.54.64-.84,1.54-1.15,3.71-1.9a18.33,18.33,0,0,1,4.19-1,16.92,16.92,0,0,1,6.21.58A3.28,3.28,0,0,1,65.15,59.05Zm-3.84,2.32c-.89-1.24-2.2-.63-2.94-1.31-.29-.26-.52-.18-.81.09a1.47,1.47,0,0,1-.59.38c-1.55.38-2.27.08-3.23,1-1.94,2-2.42,4-2.14,5.43.38,1.9,1.4,3.36,4.4,3.58,1.41-.17,2.36-.13,3.21-1.11a5.09,5.09,0,0,0,2-2.82C61.49,65,62.24,62.68,61.31,61.37Z" fill="#ffd152"></path><path d="M61.38,31.26a1.52,1.52,0,0,1,1.08,1.62c-.26,2-1.6,3-4.38,2.37-.6-.13-.63.45-.48.92a1.07,1.07,0,0,1-1,1.57c-.76.14-1-.35-1.19-.71s-.48-.57-.74-.34c-1.14,1-2.07.39-2.28-.43-.06-.21-.32-.1-.49.08a2.29,2.29,0,0,1-1.29.68c-1.46.27-1.65-1.53-1.56-1.7s0-.16.54-.36C50.36,34.7,60.65,31.05,61.38,31.26Z" fill="#ffd152"></path><path d="M58.18,61.09c.57.3,3.48,0,2.63,3.08-.19.69-.31,1.39-.45,2.09-.31,1.51-1.27,1.84-1.78,2.47-.68.85-1.61.8-2.88.93-1.65-.33-2.9-.92-3.22-2.59a5.19,5.19,0,0,1,1.9-4.85c1.15-1.08,2.07-.17,3.54-1.08A.34.34,0,0,1,58.18,61.09Zm.07,5.8a3.32,3.32,0,0,0,.35-4.09,1.73,1.73,0,0,0-2.65.12,3.36,3.36,0,0,0-.41,4A1.7,1.7,0,0,0,58.25,66.89Z" fill="#ffc6a6"></path><path d="M58.65,27.94c.25.75-.07.86-.32.95A128,128,0,0,0,41.2,35.64c-.24.11-.34.09-.5-.1a11.79,11.79,0,0,1-3.09-7.2,7.88,7.88,0,0,1,6.11-7.92,19.49,19.49,0,0,1,5.87-1C54.25,19.53,57.17,23.57,58.65,27.94Zm-5-4.76c.5-.08.55-1.46-1.3-.11-.15.11-.17.17-.38,0-3.1-2.63-9.71-.11-10,3.69a1.73,1.73,0,0,1-.43,1.06,6.37,6.37,0,0,0-1.13,2.27c-.13.59.33.77.53.18a6.36,6.36,0,0,1,.95-1.78c.19-.24.23-.24.36,0,1.47,3.16,8.05,2.5,10.21-1.13a3.4,3.4,0,0,0,.28-3.32.24.24,0,0,1,.06-.33A2.08,2.08,0,0,1,53.62,23.18Z" fill="#9edeff"></path><path d="M39.94,36c.16.17,0,.2-.1.27-3.4,1.81-8.1,4.23-11.1,7.12-.31.31-.32.31-.55,0-2.86-4.46-2.45-9.41.49-13.71,3.14-4.58,9-7.43,10.3-7.63a9.2,9.2,0,0,0-2.12,4.41A11.7,11.7,0,0,0,39.94,36Z" fill="#ff8e92"></path><path d="M19.81,95A27.83,27.83,0,0,1,26,82.6c4.91-5.39,8.81-5,10-4.86,0,0,5.21.48,6.23,1s6.78,2.1,7.61,2.52S55,84,56.5,85.72s5.15,6.83,5.87,10a66.5,66.5,0,0,0,3.36,9.23s1.86,3.87,2.76,5.19,1.45,4,1.94,6a52.38,52.38,0,0,0,3.21,7s-4.66,1.4-5.31,2.06-6.82,4.6-8.8,6.85-5.43,5.4-5.43,5.4a9.7,9.7,0,0,1,2.81,3.42c1,2.14,5.44,8,8,9.66s7.8,4.15,12.74,1.12L91.26,155a50.42,50.42,0,0,1-2.36,7.35c-1,1.91-5.56,10.6-9,13.35-2.43,1.93-.76,6.84-7.47,6.75-2.38,0-5.54.85-10.88,0-2.29-.27-6.59.17-7.64-.46-1.35-.15.23-6.38,0-8.59-.34-3.31-2.81-16.38-3.7-20.09s-6.57-23.34-7.8-25.7-7.86-17.56-12.46-24.13S19.81,95,19.81,95Z" fill="#d4f2e2"></path><path d="M140.29,168,141.54,185c5.26.2,6.49-.91,9.87.26a24.17,24.17,0,0,0,3.29-.13l.59-17.83-3.68,3.81Z" fill="#fff5db"></path><path d="M187.61,183.45a31.37,31.37,0,0,0,4.34,0c.27-.2,2.31-.26,2.44-1s.13-64.76.13-64.76c-2.4,2.31-2.46,2.45-9.67,11.78Z" fill="#fff5db"></path><path d="M11.3,181.81S5.88,155.92,5.42,134s4.1-34.48,7.85-37.56,8.65-1.25,11.61,1.25,8.65,8.31,14.34,22.42S51.87,157.3,55.61,182a65,65,0,0,1-8.36.54c-4.34-.3-12.82-.18-20.82,0C20.48,182.66,15.51,182.72,11.3,181.81Z" fill="#fff5db"></path><path d="M109,129.36l2.35-1.83s2.48,2.4,2.35,4.28l-2.48,1.87A11.82,11.82,0,0,0,109,129.36Z" fill="#c6c6c6"></path><path d="M194.59,108.72a2.15,2.15,0,0,0-.54-.14l-23.57-3.07c-.36-.06-.36-.09-.3-.43.24-1.39,1.45-8.28,1.79-10.34.05-.27.16-.35.38-.36l13.25-.64c.59,0,.7-.19.64-.77,0-.33-.47-12.25-.52-13.5,0-.57.07-.86-.51-.89-1.13-.07-7.21.31-10.12.42-.39,0-.41,0-.34-.43C175,77.48,179,54,179.3,52.22c.22-1.3.48-2.08-.81-2.21-.46-.06-18.76-2-19.24-2-.14,0-.18-.06-.12-.23,2.23-6.14,5.06-6.88,4.34-7.6-.18-.18-.46-.13-.76.16a18.14,18.14,0,0,0-4.33,7.26c-.06.23-.15.37-.47.3-1.63-.31-1.72,0-1.58-.51,1.22-4.25,3.32-7.57,7.1-9.87.38-.24.29-.95-.33-.77-1.59.44-5.62,3.87-7.58,10.69,0,.13-.08.17-.2.16-20.72-2.11-12.7-1.31-16.92-1.81-.37,0-.37,0-.45-.41-1.18-5.42-3.24-9.22-4-8.63s1.69,1.48,3.1,8.52c.05.29,0,.35-.28.33s-.78-.06-1.17-.11a.26.26,0,0,1-.17-.15,1.37,1.37,0,0,1-.08-.35c-.45-3-1.88-7.29-4.32-8.91-.32-.21-.67.16-.42.51s2.89,2.35,3.88,8.54c0,.17,0,.25-.23.23-1-.11-30.53-3.24-31.11-3.28a.54.54,0,0,0-.37.11,2.48,2.48,0,0,0-.41.81c-.17.94-8.36,51.47-8.47,52.17,0,.36-.12.39-.48.34S74,93,73.42,92.88a2.64,2.64,0,0,0-2,.27c-1.12.62-6.12,3.48-7.5,4.27-.45.26-.45.27-.63-.21a33.39,33.39,0,0,0-2.84-6.64c-2.78-4.44-2.57-3.85-5.86-7.21a.47.47,0,0,1-.16-.58c.32-.69-.89-2.67-1.08-3.06-.51-.38-.31-.9-.27-1.39,0-.32-.08.48.46-3.29.06-.46.09-.47.56-.45a9.39,9.39,0,0,0,5.42-1.39c5.07-3.14,6.67-10.28,7-16.24a50.74,50.74,0,0,0-3.18-18.73.43.43,0,0,1,.23-.53c3.22-1.42,13.38-5.74,14.26-9.13.94-3.64-6-2.83-9.73-2.15s-6.41,1.51-8.08,2c-.33.09-.38.07-.47-.25-2.16-7.48-6.4-10-11.09-9.69-2.23.14-2.57.59-4.24.81a23.65,23.65,0,0,0-6.15,2c-3.46,1.57-6.53,3.29-9.23,6.61C24,33.78,24.56,40.61,28.32,45a.48.48,0,0,1,.12.22A11.35,11.35,0,0,0,29,49.86a18.32,18.32,0,0,0,1.9,4.38c.07.08.17.19-.07.28-2.49.93-3.67,5.2-.44,9.33a.67.67,0,0,1,.11.68,2.67,2.67,0,0,0,4.07,3,2.69,2.69,0,0,0,1.09-2.07.51.51,0,0,1,.13-.35c.44-.32.9-.6,1.34-.91.2-.15.3-.08.35.13.75,3.19.05,5.45-.39,8.67,0,.26-.1.38-.38.43a5.21,5.21,0,0,0-3.94,3.29c-.09.3,0,.69-.24.89s-.59.23-.89.34c-3.51,1.34-10.23,7.59-12.06,16.13-.06.25-.14.31-.41.27A7.25,7.25,0,0,0,13.46,96c-9.51,7.74-8.85,36.15-8,48.36,1,14.56,4.39,32.5,5.08,34.44.09.26.62.35.73-.18S7.76,163.35,6.4,143.26c-1.13-16.89,0-24.88,1.61-33.61,1-5.74,2.63-8.69,4.82-11.1a2.66,2.66,0,0,1,3.48-.78c8.11,4,17.84,33.44,20.52,42.06,5.53,17.77,9.48,37,9.79,37.74.24.54,1,.31,1-.17-.26-2-4.49-20.41-9.14-35.75-3-9.84-12-37.94-20.51-44.11a5.08,5.08,0,0,0-3.09-1.16l.15-.12a5.78,5.78,0,0,1,3.7-.79c8.16,1,15.83,15.86,19.22,23.33,8.18,18,12.54,36.49,15.95,56.08a.52.52,0,0,0,1,0c.15-1.31-5.58-33.5-15.1-54.63-3.57-7.93-10.68-22.51-19-25.42-.44-.16-.5-.22-.38-.65a25.19,25.19,0,0,1,8.75-13.42,17.84,17.84,0,0,1,2.6-1.78c1.69-.89,6.93-.49,7.65-.39a29.19,29.19,0,0,1,7.12,2.08c2.31,1.26,6.91.55,13.07,10.64,2.48,4.07,3.27,9.19,5.19,13,4.74,9.33,3.3,7.15,5.73,13.86.46,1.26,1.66,3.28,2.18,4.37,0,0,0,.13-.06.13-1.61.09-8.51,4.49-9.82,5.43-1.53,1.11-8.09,7.8-8.41,8.17A22.81,22.81,0,0,1,51.65,139c-.12.1-.16.11-.27,0-1.9-2.11-3.46-6.63-4.13-7.94-4.59-9-2.45-6.62-4.85-14.89-.64-2.19-1-2.55-2.7-8.82a43.81,43.81,0,0,1-.64-13.87c.18-.79-.74-.93-.86,0a39,39,0,0,0,1.11,16.32c.8,2.54,2,5.94,2.72,8.94.38,1.56.92,4.76,1.3,6a38,38,0,0,0,3.1,7s2.37,5.85,3.78,7.52,2,1.14,4.6-.36a.28.28,0,0,1,.25,0c4.63,7,9,15.06,18.07,14.51a11.48,11.48,0,0,0,4.06-1.12.73.73,0,0,1,.58,0c.72.22,54.64,14.32,55.47,14.51a1.33,1.33,0,0,1,1.15,1.21c1.69,7.51.92,14.16,1.35,15.54.23.71.85.65.83-.12-.14-6.11-.12-11.47-1.35-15.79-.09-.3-.07-.31.25-.23,3.27.8,3.06.82,4.1,1.06a.31.31,0,0,1,.28.32c0,.11,1.16,15.65,1.26,16.49s.95.68.88-.2c-.09-1.14-1.24-15.2-1.3-16,0-.22.06-.32.3-.24l9.84,2.54c.26.06.39.17.36.45-.08.79-.21,13.36-.21,13.46,0,.32.17.63.38.64s.46-.22.48-.57.19-10.91.18-12.73a1.32,1.32,0,0,1,.4-1.06c.11-.1,1-1.24,2.18-2.78.19-.26.23-.12.22.08,0,.83-.54,16-.52,16.49,0,.18.07.38.33.39s.45-.08.51-.37.57-17.45.58-17.58A1.14,1.14,0,0,1,156,167c1.66-2.09,28.29-36.26,28.52-36.41.06.22,2.54,52.51,2.65,53.22a.42.42,0,1,0,.84-.07c0-.64-2.69-53.35-2.73-54,0-.35-.07,0,5.88-7.79.21-.27.22,0,.22.06,0,3.93.1,61.51.16,61.92a.43.43,0,0,0,.86,0c0-.18-.17-59.71-.23-62.19a2.32,2.32,0,0,1,.55-1.81c.45-.47.77-1,1.2-1.54.15-.18.24,0,.23.07,0,.22-.34,64.39-.22,64.82a.43.43,0,0,0,.84-.06c0-.35.22-71.57.23-74A.53.53,0,0,0,194.59,108.72ZM59.88,71.51c-6.49,5.31-14.57-1-19-8.34a.67.67,0,0,1,0-.73c.33-.47.71-.91,1.08-1.35.11-.14.24,0,.34.06,1.44,1.33,1.84,1.12,3.48,2.07a2.87,2.87,0,0,0,2.25.34c.8-.21.93-.71,2.33-2.54.64-.84,1.54-1.15,3.71-1.9a18.33,18.33,0,0,1,4.19-1,16.92,16.92,0,0,1,6.21.58,3.28,3.28,0,0,1,.71.39.3.3,0,0,1,.07.25C64.93,63.24,63.08,68.89,59.88,71.51ZM76.4,29.35C73.26,32.73,65,36,63,36.89c-.15.07-.17,0-.21-.07-.18-.4-.37-.8-.53-1.21a.4.4,0,0,1,.1-.35,3.48,3.48,0,0,0,1-2.07,2.42,2.42,0,0,0-.55-2.1c-.2-.22-.19-.27.11-.34,1.78-.46,11.31-3,13.33-1.93C76.55,29,76.6,29.12,76.4,29.35ZM57.6,36.17a1.07,1.07,0,0,1-1,1.57c-.76.14-1-.35-1.19-.71s-.49-.57-.74-.34c-1.14,1-2.07.39-2.28-.43-.06-.21-.32-.1-.49.08a2.29,2.29,0,0,1-1.29.68c-1.46.27-1.65-1.53-1.56-1.7s0-.16.54-.36c.75-.27,11-3.9,11.74-3.7a1.53,1.53,0,0,1,1.08,1.62c-.26,2-1.6,3-4.38,2.37C57.48,35.12,57.45,35.7,57.6,36.17ZM66,27.7c4.45-1,8.12-1.21,10.22-.67,1,.26.79.66.75.82s-.14.13-.34.08c-5.34-1.49-28.38,5.12-43.89,13.69-.31.18-.46.23-.52.13C31.87,41.07,49.42,31.42,66,27.7ZM43.72,20.42a19.81,19.81,0,0,1,5.87-1c4.66.14,7.58,4.18,9.06,8.55.25.75-.07.86-.32.95A128,128,0,0,0,41.2,35.64c-.24.11-.34.09-.5-.1a11.79,11.79,0,0,1-3.09-7.2A7.89,7.89,0,0,1,43.72,20.42Zm-15,23c-.31.31-.32.31-.55,0-2.86-4.46-2.45-9.41.49-13.71,3.14-4.58,9-7.43,10.3-7.63a9.2,9.2,0,0,0-2.12,4.41A11.7,11.7,0,0,0,39.94,36c.16.17,0,.2-.1.27C36.44,38.09,31.74,40.51,28.74,43.4ZM34.6,65.82c-.44,1.76-3.48,1.47-3.28-.5,0-.49.08-.63.25-.54C33.79,65.8,34.79,65.05,34.6,65.82Zm2.47-3.29c-2,2.06-2.16,1.88-2.86,1.83A8.61,8.61,0,0,1,32.46,64c-.05,0-.08-.07-.12-.11s-.05-.08.92-.19a.47.47,0,0,0,0-.94,2.4,2.4,0,0,0-1.71.36.33.33,0,0,1-.49-.06,6.35,6.35,0,0,1-1.7-3.57c-.14-1.64.14-3.11,1.58-3.91a3.12,3.12,0,0,1,1.12-.31c1.52-.19,1.53.41,2.51.55a.7.7,0,0,0,.53-.17c.43-.41-1.19-1.63-2.94-1.51-.18,0-.19,0-.27-.16a21.11,21.11,0,0,1-1.74-3.7,13.83,13.83,0,0,1-.72-4.81c0-.18.2-.35.34-.5A9.8,9.8,0,0,1,32,43.2c5.9-3.85,14.83-7,15.9-7.48.19-.09.32-.09.33.19a2.35,2.35,0,0,0,3.71,1.83.38.38,0,0,1,.54,0,1.3,1.3,0,0,0,1.66.26c.12-.07.25-.11.38-.17a.24.24,0,0,1,.35.09,1.75,1.75,0,0,0,2,.8,2,2,0,0,0,1.82-2.1c0-.16,0-.23.22-.18a3,3,0,0,0,2-.24c.3-.15.35-.12.49.2a46,46,0,0,1,4,21.15c0,.37-.05.38-.4.22-1.22-.57-1.79-.5-4-.63l-.16,0a.76.76,0,0,1,.09-.18,4,4,0,0,0,1.5-3.17,2.36,2.36,0,0,0-3.31-2.33c-1.22.46-1.54.72-2.18.65a.41.41,0,0,1-.26-.2,4.29,4.29,0,0,1-.13-.6.42.42,0,0,0-.39-.4c-.74,0-.82,1.78.48,2.21A2.33,2.33,0,0,0,58.29,53,6.76,6.76,0,0,1,60,52.4c.84-.14,1.44.78,1.39,1.48a3.19,3.19,0,0,1-2.63,3,37.08,37.08,0,0,0-6.22,1.71A7,7,0,0,0,48.7,61.5c-.42.64-1.1,1.91-2.32,1-1.82-1.31-1.8-.5-3.38-2.05a1.23,1.23,0,0,0-1.88,0c-1,1-1.84,2.11-1.07,3.33,2.81,4.49,7.39,9.67,12.55,10.58.23,0,.27.14.22.3a25.29,25.29,0,0,0-.56,3.62c0,.15-.06.22-.21.08-1.69-1.59-3.53-2.83-7.71-4a17.56,17.56,0,0,0-6.07-1.08c-.17,0-.24,0-.2-.22.36-2.41,1.3-7.23.1-9.34A.88.88,0,0,1,38,63,.56.56,0,0,0,37.07,62.53ZM47,79.75a33.11,33.11,0,0,0-5.89-1.92,27.58,27.58,0,0,0-7.52-.35c-.22,0-.18,0-.12-.2a4.07,4.07,0,0,1,3.38-2.88c.45-.08.91-.13,1.36-.2,1.17-.18,3.85.57,5.07.88a20.5,20.5,0,0,1,7.56,3.55c2.35,2,2.43,3.3,2.55,3.77A45.2,45.2,0,0,0,47,79.75ZM184.44,92.81c-1.09,0-15.38.74-15.83.73s-.28,0-.18-.3c.17-.51,4.74-5.94,5.17-6.52.08-.11.11-.12.23,0l2.11,1.45a1,1,0,0,0,1.23-.11c.51-.45,1-.92,1.5-1.38.29-.27.3-.29.58,0l5.29,6C184.64,92.76,184.58,92.81,184.44,92.81Zm-17,.1s-.07-.11-.07-.16c-.11-6.56-.47-10.13-.4-10.76a.85.85,0,0,1,.22.09l5.13,3.55c.43.29.49.43.16.85C167.49,92.87,167.75,92.79,167.46,92.91Zm17.46-11.72c0,.51.44,9.43.47,10.29,0,.12.07.78-.37.27-.62-.72-4.86-5.4-5.19-5.75-.15-.15,0-.39.11-.52C185.33,80.58,184.86,80.79,184.92,81.19Zm-.39-1.76c.35,0,.17.22.08.32-.78.81-7.17,6.66-7.83,7.28-.16.15-.28.34-.74,0-.84-.59-7.87-5.35-9-6.11a.32.32,0,0,1-.19-.4.61.61,0,0,1,.4-.29C169.33,80.19,184.17,79.45,184.53,79.43ZM158.64,49.72c.16-.58.12-.68.23-.77s.31,0,.51,0c1.05.13,18.4,2,19,2.08.19,0,.21.09.17.27-.22,1.19-4.59,26.52-4.7,27.25-.06.46-.09.49-.56.55-.23,0-.48,0-.71,0s-.3-.11-.26-.31c.11-.69,4.36-25.3,4.46-26s-.12-1-.92-1.11c-1.56-.15-16.79-1.73-17-1.75S158.59,49.91,158.64,49.72ZM156,49.09c.07-.46.07-.46.54-.45s.86.11,1.3.13c.2,0,.23.09.2.24a5.11,5.11,0,0,1-.12.7.24.24,0,0,1-.21.14c-.56-.05-1.11-.12-1.67-.2,0,0-.1-.1-.1-.16A2.76,2.76,0,0,1,156,49.09Zm-1-.59c.22,0,.32.1.26.47-.1.57-.1.56-.68.5-1.81-.17-15.36-1.6-15.92-1.62s-.3-.11-.4-1.13C152.09,48.09,154.28,48.44,154.94,48.5Zm-19.07-2.08a7.77,7.77,0,0,1,1.45.23,3.82,3.82,0,0,1,.07,1c0,.18-.38,0-1.55-.09-.17,0-.18-.11-.19-.24C135.6,46.4,135.43,46.41,135.87,46.42ZM134.82,49c0,2.15-.2,2.93-.21,3.78,0,.38.61.63.78.15a16.82,16.82,0,0,0,.28-4.16c0-.21.08-.3.26-.29.45,0,.89.09,1.33.12.18,0,.23.09.22.26a22.24,22.24,0,0,1-.17,2.45c-.06.53.58.74.76.31a9.16,9.16,0,0,0,.25-2.58c0-.2,0-.33.3-.29,1.34.16,16,1.69,16.08,1.7s.27.11.25.32a13.93,13.93,0,0,0,.2,3.93.33.33,0,0,0,.42.18c.56-.23-.12-1.39.13-3.94,0-.39,0-.39.42-.35l1.27.13c.21,0,.31.1.31.36s.07,2.6.13,2.71c.19.29.51.26.55,0a11.46,11.46,0,0,0,.11-2.63c0-.26.12-.35.38-.32s16.64,1.78,16.75,1.78.33.13.28.37c-.19,1-4.31,24.53-4.52,25.78-.06.37,0,.36-.45.38-3.73.19-4.48.27-4.66.58-.38.65.38,13.51.47,14.26.06.43.21.56.64.57.81,0,1.3-.26,1.22.21-.78,4.81-2.33,13.47-2.34,13.49,0,.25-.16.27-.35.23L97.38,95.26c-.39-.07-.41-.1-.35-.49.25-1.51,8-48.45,8.08-49.15.07-.4.09-.4.46-.37l28.58,3C135,48.39,134.81,48.41,134.82,49ZM94.38,97.67c.3-1.73,8.77-54.08,8.84-54.5,0-.24.16-.29.39-.26,1.52.19,29.77,3.22,30.53,3.33.56.09.55.09.58.71a1.67,1.67,0,0,0,0,.19c0,.22-.08.27-.27.26-.39,0-28.68-3-29.46-3.08-.49,0-.77.17-.71.65a7,7,0,0,1-.2,1.72c-.12,1-7.9,47.68-8.06,48.62-.07.43,0,.63.5.72s62.41,12.26,69.86,13.68c.42.08.63,0,.7-.47.43-2.67,2.4-13.76,2.45-14.44,0-.24.12-.33.35-.33.85,0,1.24-.19,1.16.26-.18,1-2.86,16.43-3.06,17.64,0,.22-.1.29-.33.25-.06,0-72.09-14.5-73.09-14.67C94.39,97.92,94.35,97.84,94.38,97.67Zm73.55,16.77a9,9,0,0,1-.16,1.11,1.94,1.94,0,0,1-.62.59c-1.16.9-26.72,21.57-26.8,21.64-.26.21-.14-.48-.14-1.42,0-.24.19-.34.35-.47,29.07-23.12,27.13-21.48,27.21-21.56S167.94,114.39,167.93,114.44ZM69.63,112c-2.09-5.48-2.64-5.63-4-8.54,0,0-2.06-4.66-1.6-4.92,9.52-5.38,8.24-4.7,8.57-4.82.59.08,19.64,2.6,20.79,2.74.27,0,.33.11.26.4s-.14.84-.22,1.26a.46.46,0,0,1-.17.28C68.85,112.47,69.84,112.49,69.63,112Zm2.21,6.29c-1.13-2.67.12.81-1.75-4.89-.06-.21,0-.29.17-.4,1.66-1,22.5-13.39,23.49-14,.65-.41-3.09-.67,73.24,14.51.08,0,.32,0,.06.23-.68.52-26.34,20.85-27,21.39a1.1,1.1,0,0,1-1.1.23c-4.19-1.11-20.74-5.14-21.62-5.49a1.45,1.45,0,0,1,.22-.21s3.89-2.29,5.09-4.78a.35.35,0,0,1,.2-.18l2.8-.76c.52-.14.94,0,1.91.39a.39.39,0,0,1,.24.21c.2.61.16,1.62.34,2.77.1.65.61.95,1.15,1.2a2.14,2.14,0,0,0,.34.09c.91.21,1.59-.22,1.59-1.57h0c0-3,0-2.19.19-3.35a1.07,1.07,0,0,0-.14-.72,5.35,5.35,0,0,0-.59-1.07c-.08-.09,0-.33,0-.47s.23-.07.36,0c1.82.46,15.73,3.92,16.43,4.08a1.3,1.3,0,0,0,1.29-.18c1-.75,11.81-9.22,13-10.19.63-.5.76-1.1-.26-1.3C95.17,100.23,94.49,100,94.51,100a1,1,0,0,0-.57.18c-1.44.83-12.44,7.63-12.46,7.64-.17.1-.38.17-.32.39s.07.49.37.57l31.91,8c.31.08.34.14.26.24-2.87,3.51-2.32,2.58-4.68,5.19-.28.29-.25.27-.63.16a4.8,4.8,0,0,0-2-.36,3,3,0,0,0-1.19.44,9.35,9.35,0,0,0-2.09,1.88,3.36,3.36,0,0,0-.66,1.37c-.1.35-.14.36-.45.28C70.48,118,72,118.7,71.84,118.24Zm33.81,5a.52.52,0,1,1,.72.74C105.93,124.4,105.1,123.73,105.65,123.2Zm-.85,3.27a.81.81,0,1,1,0-1.61.81.81,0,1,1,0,1.61Zm3,.81a.77.77,0,0,1-.84,1.16,1.07,1.07,0,0,1-1-.79C105.84,126.6,107.31,126.37,107.81,127.28Zm-.48-1.2c-.8-.15-1.18-.84-.92-1.32a1,1,0,0,1,1.79.59A.74.74,0,0,1,107.33,126.08Zm.41-2.74c.32-.48,1.31.16.73.47C108,124.05,107.5,123.7,107.74,123.34Zm.7,3.11a.74.74,0,0,1,.7-.48c.77,0,1.39,1.2.53,1.56A.94.94,0,0,1,108.44,126.45Zm1-2.28c.45-.08,1.1.28.95.84a.79.79,0,0,1-1.23.08A.53.53,0,0,1,109.4,124.17Zm1.54,4a.24.24,0,0,1,.33-.06c.08.06-.11-.09.42.42a4.28,4.28,0,0,1-1.38,1.3.48.48,0,0,1-.76-.29C109.53,129.33,109.64,129.36,110.94,128.17Zm-.34,2.37c1.44-.73,1.48-1.51,1.74-1l.24.41a3.64,3.64,0,0,1-1.67,1.28c-.29.12-.31-.18-.42-.33S110.46,130.61,110.6,130.54Zm1.12,1.12c1.09-.51,1.15-1.14,1.3-.74.08.22.18.43.29.68-.19.31.2,0-1.57,1.32-.14.1-.28.08-.4-.16C110.93,131.87,110.89,132,111.72,131.66Zm.27-4.19c-.15-.12-.18-.2-.07-.37a1.76,1.76,0,0,0-.17-2.4,6.51,6.51,0,0,0-2.08-1.6c-.17-.09-.16-.15-.06-.25a50.3,50.3,0,0,0,5.55-6.2c.65-.78.53-.85,3.37-2.24a3.07,3.07,0,0,1,1.73-.37,7.51,7.51,0,0,1,.94.21s0,.11,0,.12c-.75.46-1.37.57-2.69,1.43-.4.22-.11.89.56.64a3.36,3.36,0,0,0,.68-.35c2.07-1.32,3.33-1,4.58-1.43a1.83,1.83,0,0,1,1.77,1.19c0,.23-.09.3-.29.35a29.6,29.6,0,0,0-4.28,1.12c-.48.19-.09.77.62.62,3.93-.81,3.83-.89,4.49-1a2.55,2.55,0,0,1,1.8.42c1.21.8,1.07,1.45,1.31,3,0,.1,0,.41-.29.19A7.31,7.31,0,0,0,128,120c-.1-.06-.13-.28-.19-.4s-.15-.38-.24-.56a.42.42,0,1,0-.75.36l.13.37a6.5,6.5,0,0,0-2.24,0c-.44.16,0,.52.45.58a17.11,17.11,0,0,1,3.46.76,5.19,5.19,0,0,1,1.87,2.18.67.67,0,0,1,.07.48c-.54,1.6.39,4.27-.8,3.86-.55-.19-.81-.42-.84-1a5.48,5.48,0,0,0-.53-2.83.4.4,0,0,0-.18-.16,4.7,4.7,0,0,0-2.59-.62c-2.74.66-3.08.57-4.08,1.89-2.39,3.15-4.68,3.81-7.44,5.84-.16.12-.18.05-.21-.09A7,7,0,0,0,112,127.47Zm13.79-13.29a3,3,0,0,0-2.65-.16c-.14,0-.29,0-.06-.16q.63-.49,1.26-1a.55.55,0,0,1,.55-.1c6.43,1.58,6.94,1.47,6.55,1.77-.77.6-2.17,1.62-2.17,1.62a.63.63,0,0,1-.69.13c-1.41-.42-1.6-.23-1.55-.58C127.12,115.15,126.49,114.59,125.78,114.18Zm15.29,1.65c-.14,0-.17-.1,0-.2l2.18-1.69c.32-.17.07-.06,6.86,1.35l.18,0c-.12.18,0,0-1.92,1.57a1.75,1.75,0,0,1-.69.44Zm5.67,2.3-2.3,1.78a1.91,1.91,0,0,1-.28.15c-7.1-1.7-6.26-1.45-6.58-1.64.26-.24,1.76-1.39,2.27-1.83a.71.71,0,0,1,.67-.14c.84.2,5.3,1.25,6.18,1.42C146.85,117.93,146.88,118,146.74,118.13Zm-4.43-4.33c-2.11,1.69-2.12,1.7-2.4,1.78-1.68-.41-6.14-1.43-6.37-1.51l-.15-.08,2.2-1.65a.64.64,0,0,1,.58-.13l6.11,1.39C142.47,113.64,142.4,113.73,142.31,113.8Zm-9.72-.11a.47.47,0,0,1-.46.07c-6.64-1.57-7-1.49-6.66-1.73,2.11-1.6,2-1.57,2.34-1.65,0,0,3,.7,6.92,1.51.06,0,.1.07.16.11A21.63,21.63,0,0,1,132.59,113.69Zm-6.06-3.31c-2,1.54-1.84,1.48-2.17,1.57-6.84-1.6-6.54-1.46-7.23-1.74a13.3,13.3,0,0,1,1.75-1.54.47.47,0,0,1,.49-.11C127.12,110.32,127,110,126.53,110.38Zm-8.36-1.92a10.12,10.12,0,0,1-2,1.57l-6.34-1.46c-.19,0-.25-.13-.08-.26.58-.47,1.17-.94,1.76-1.39a.5.5,0,0,1,.34-.06l6.47,1.44A.57.57,0,0,1,118.17,108.46Zm-9.62-.19c-.16,0-5.92-1.35-6.16-1.43a1.37,1.37,0,0,1-.2-.13c.16-.17.76-.62,1.58-1.3a.68.68,0,0,1,.69-.16l6.17,1.4A18.33,18.33,0,0,1,108.55,108.27Zm-7.19-1.79a.4.4,0,0,1-.42,0c-5.83-1.37-5.73-1.2-5.49-1.43,1.75-1.28,1.74-1.29,2.06-1.37L103,105C103.34,105,103,105.1,101.36,106.48Zm-1.23.58.19.06c.16,0,.15.09,0,.18-.53.41-1,.77-1.87,1.51a.75.75,0,0,1-.74.18c-1.33-.34-5.62-1.36-5.67-1.37s.06-.12.11-.15c2.21-1.65,2.24-1.63,2.45-1.68C95.51,106,94.29,105.75,100.13,107.06Zm1,.49a2.7,2.7,0,0,1,.31-.2c.62.15,6.19,1.42,6.41,1.49-.17.31.27-.18-2.19,1.81a.48.48,0,0,1-.51.1c-1.87-.45-6.06-1.45-6.14-1.5S100.46,108,101.09,107.55Zm7.38,1.71a.53.53,0,0,1,.51-.13c6.74,1.6,6.66,1.37,6.3,1.71-2.1,1.73-2,1.7-2.28,1.78L106.35,111C106.46,110.77,106.44,110.86,108.47,109.26Zm5.74,3.32c1.94-1.66,1.94-1.64,2.19-1.74l7,1.65c.16,0,.17.11.07.19-.4.32-.8.64-1.22.92-.08.07-.27,0-.41,0-1.54-.37-2.07-.74-3.53-.06a1.45,1.45,0,0,1-1.08.11c-2-.53-2.88-.63-3.2-.82A.87.87,0,0,1,114.21,112.58Zm18.06,2.22c.11-.08.23-.14.31-.19l6.16,1.42c.07,0,.4.1.4.17,0,.23,0,.13-2.28,1.91a.51.51,0,0,1-.52.09c-6.41-1.54-5.06-1.13-6.42-1.61A17.77,17.77,0,0,1,132.27,114.8Zm-2.15,2.65c.19,0,5.09,1.2,5.66,1.37a2,2,0,0,1-.25.25c-2.37,1.82-2.16,1.67-2.44,1.79-1.18-.27-1.21-.31-2.16-.53-.2,0-.28-.11-.3-.32a8.59,8.59,0,0,0-.6-2.38l-.11-.16A.68.68,0,0,1,130.12,117.45Zm4.09,3.52c2.59-2,2.4-1.86,2.63-1.92,6.3,1.51,6.17,1.47,6.39,1.56s.11.13,0,.2l-1.33,1c-1.12.75-1,1.06-1.72.87l-5.93-1.52a.66.66,0,0,1-.19-.09Zm9.9,0a.51.51,0,0,1,.48-.06l6.28,1.52-.18.18a28.4,28.4,0,0,1-2.73,2c-.15,0-6-1.53-6.31-1.65C141.78,122.77,141.7,122.87,144.11,121Zm1-.69c.28-.37,1.06-.82,2.2-1.79a1.06,1.06,0,0,1,1.07-.23c1,.25,4.84,1.13,5.76,1.35a.68.68,0,0,1,.21.1.64.64,0,0,1-.13.15,30.43,30.43,0,0,1-2.63,2Zm3.54-2.72a.65.65,0,0,1,.15-.18c.73-.58,1.45-1.15,2.19-1.71a.7.7,0,0,1,.47-.08c1.27.27,5.38,1.2,6.18,1.38l.18.08c-.05,0-1.66,1.3-2.42,1.88a1.51,1.51,0,0,1-.28.15C155,119.07,148.93,117.69,148.66,117.57Zm3.39-2.64a1.06,1.06,0,0,1,.19-.23c1.65-1.31,1.74-1.39,2-1.48l6.52,1.33c.18,0,.14.1,0,.17-2.41,1.8-1.67,1.86-3,1.56C152.1,115,152.34,115.13,152.05,114.93Zm1.14-1.78c-2,1.51-1.9,1.53-2.21,1.62l-6.6-1.46c-.41-.09.27-.34,1.3-1.3a1.43,1.43,0,0,1,1.47-.26c1.48.34,6,1.22,6,1.22S153.33,113,153.19,113.15Zm-7.94-1.6c-1.79,1.36-1.81,1.38-2.08,1.48-.54-.1-6-1.29-6-1.29l-.46-.18c.58-.51,1.4-1.14,1.78-1.42a.49.49,0,0,1,.37-.09l6.49,1.35A.61.61,0,0,1,145.25,111.55ZM137.63,110c-.29.22-1.62,1.21-2,1.37,0,0-6.9-1.49-7-1.53s-.16-.09,0-.19,1-.78,1.08-.86c.29-.45-.12-.7-.42-.48a10.77,10.77,0,0,0-.86.65,1.73,1.73,0,0,1-1.77.46c-1.71-.46-6.05-1.36-6.65-1.47-.16,0-.16-.11-.06-.2.44-.38.88-.77,1.33-1.14a.59.59,0,0,1,.43-.07C138.43,110,138,109.74,137.63,110Zm-17-3.54c-.49.39-1,.8-1.47,1.18a.55.55,0,0,1-.38,0c-1.46-.3-5.56-1.2-6.15-1.34l-.21-.09a15.39,15.39,0,0,1,1.32-1.18.53.53,0,0,1,.37-.06c.11,0,6,1.19,6.57,1.37A.38.38,0,0,1,120.61,106.47Zm-9.33-.46c-.35-.06-4.41-.94-6-1.3l-.31-.14c.21-.29.26-.2.86-.78a1,1,0,0,1,1.12-.27c1.69.38,5.65,1.17,5.94,1.24,0,0,.07.1.07.11C111.19,106.2,111.46,106,111.28,106Zm-6.07-2.63a4.52,4.52,0,0,1-1.4,1c-.5-.1-5.59-1.2-5.66-1.24s.91-.7,1.24-.94a.84.84,0,0,1,.74-.07c5.31,1.14,4.94.92,5.18,1.1A.65.65,0,0,1,105.21,103.38ZM98.51,102c-1.23.89-1.21.91-1.37.91-.42-.08-3.92-.73-4.3-1a.54.54,0,0,1,.09-.12c1.31-.79,1.44-.89,1.75-.85,1.25.26,2.49.53,3.74.81l.16.07A.27.27,0,0,1,98.51,102Zm-2.24,1.44c.14,0,.12.12,0,.18-1.63,1.17-1.61,1.23-2,1.36-2-.4-4.06-.94-4.67-1.06a.75.75,0,0,1,.12-.14c2-1.25,2.06-1.29,2.36-1.25C93.52,102.81,94.9,103.13,96.27,103.43Zm-2.7,2.13a.47.47,0,0,1-.09.12c-2.21,1.65-2.11,1.58-2.42,1.71-5.41-1.23-5-1.17-5-1.17-.39-.09.39-.37,2.52-1.71a.51.51,0,0,1,.43-.06C93.85,105.62,93.43,105.46,93.57,105.56ZM90,107.86c.18,0,.34.11.19.22-2,1.43-1.86,1.37-2.12,1.43-5.65-1.4-5.21-1.28-5.36-1.4l2.09-1.27C85.33,106.5,85.43,106.8,90,107.86Zm-.77,1.74q.92-.69,1.86-1.35a.73.73,0,0,1,.25-.08c4,1,1.76.42,5.84,1.43.16,0,.15.1,0,.19l-1.68,1.35a.51.51,0,0,1-.55.12l-5.69-1.44C89.14,109.77,89.13,109.7,89.27,109.6Zm7,1.81a14.9,14.9,0,0,1,2-1.56l6.11,1.44c.19,0,.41.08.13.28s-.53.4-1.71,1.34a.61.61,0,0,1-.6.16l-6-1.54A.83.83,0,0,1,96.26,111.41Zm7.32,1.71a23.45,23.45,0,0,1,2-1.49,2.57,2.57,0,0,1,1,.19c7.14,1.59,6,1.3,5.65,1.57l-1.84,1.53a.54.54,0,0,1-.53.09C103.11,113.28,103.15,113.47,103.58,113.12Zm7.66,1.93c.59-.51,1.19-1,1.79-1.5a.48.48,0,0,1,.37-.09c1.06.23,2.12.49,3.17.75.21.05.2.17,0,.23a6.56,6.56,0,0,0-2.36,1.66l-2.9-.73C111.05,115.3,111,115.22,111.24,115.05Zm4.63,15.6a.7.7,0,0,1,.63-.09l22.71,5.7c.18,0,.23.11.21.27a8.51,8.51,0,0,1-.07,1.43c0,.28,0,.28-.34.2-3.12-.81-24.6-6.28-24.82-6.41C114.44,131.57,115.32,131,115.87,130.65Zm-43.07-11c.48.11,27.06,6.77,28.23,7.06.23,0,.53.13.33.25l-.18.1a11.42,11.42,0,0,1-2.21.9s-23.59-6.06-25.14-6.41a.82.82,0,0,1-.63-.52C72.85,120.13,72.16,119.47,72.8,119.61Zm-.36,6.69c.39-.57,2-2.23,1.75-3.56a.43.43,0,0,1,0-.19c1.12.23,22.91,5.81,23,5.84a.57.57,0,0,1,.16.15.64.64,0,0,1-.16.11c-11.46,4.06-8.44,2.33-15.13,4-.41.1-5,1-5,1a.73.73,0,0,1-.44-.19,11,11,0,0,1-2.54-3.41,23.61,23.61,0,0,1-1.7-3C72.25,126.64,72.32,126.46,72.44,126.3Zm.38,26.06c-6.89-.14-10.35-4.33-15-11.19-.14-.22-2-3.09-2.1-3.35a.82.82,0,0,0-.5-.6c-.24-.08-.2-.17-.08-.31C65.31,126.25,65.33,128.14,69.9,125c.14-.1.21-.16.33,0,1,1.72,3.67,7.5,5.64,9.15a2.3,2.3,0,0,0,2,.38,35.39,35.39,0,0,0,4.2-.94c6.18-1.87,4.62.31,18.56-5.29.61-.25,1.21-.55,1.81-.84s.48-.24.84.13a14.72,14.72,0,0,0,3.64,2.32c1,.47,1.59-.16,2,.25a7.51,7.51,0,0,1,1.49,2.8c.08.23,0,.28-.14.35-29.46,16.47-17.6,10-23,13C85.27,147.42,75.65,152.42,72.82,152.36Zm78.37,17.72c0,.44,0,.45-.43.34-.1,0-71.51-18.77-71.66-18.89,0,0,.07-.08.11-.1,2-.86,8.1-4,8.12-4a.86.86,0,0,1,.68-.09L150.56,163c.43.1.76.36.74.81C151.26,164.82,151.19,170.08,151.19,170.08Zm.39-8.26a.65.65,0,0,1-.79.24c-2.51-.67-61.68-15.48-61.76-15.52.31-.26,20.67-11.85,20.77-11.91.71-.41.87-.51,1.36-.44s1-.3,1.4-.56a5.26,5.26,0,0,0,.86-.7.79.79,0,0,1,.82-.22c2,.55,23.83,6.09,24.76,6.33a1.57,1.57,0,0,0,1.44-.32c1.45-1.14,26.52-21.19,27.94-22.34.23-.2.26-.36.33-1a12,12,0,0,0,.1-1.8c-.07-.46.25-2,1-6.45.13-.69.12-.68.81-.58,1.06.15,22.56,2.91,22.78,2.95s.32.08.13.31C192.93,110.56,152.78,160.31,151.58,161.82Zm42.31-45c-1,1.2-40.92,52.49-41.58,53.29-.18.23-.27.25-.26-.12.07-1.67.08-5.81.08-6.6a1.59,1.59,0,0,1,.4-1.12c.82-1,41.21-51.32,41.57-51.67,0,.08,0,.16.05.23,0,.69,0,4.18,0,5.24A1.12,1.12,0,0,1,193.89,116.82Z" fill="#000001"></path><path d="M157.1,32c.28.11,22.58,8.36,23.48,8.68a.53.53,0,0,0,.76-.49c0-.5,6.1-15.95,6.22-16.61,0-.3-.11-.44-.4-.49-.9-.15-22.87-8.12-24.23-8.48-.37-.1-.46,0-.6.3-.08.18-4.72,13-5.13,14.15-.23.64-.44,1.29-.62,2A.75.75,0,0,0,157.1,32Zm1.72-.34c-.25-.1-.28-.19-.06-.33s8.47-4.74,8.91-5c.23.26.13.23,2.25,4a1,1,0,0,0,1.32.52c.35-.11,3.73-1.3,4-1.42s.3,0,.37.16c.36.86,3.56,8.46,4,9.42a.93.93,0,0,1,0,.23C179.32,39.28,163.76,33.48,158.82,31.68ZM180.87,39c-.24.51.09.85-4.32-9.45-.18-.44-.18-.45.26-.61,9.6-3.48,8.68-3.18,9-3.17C185.81,26.15,186,25.21,180.87,39ZM163,15.68c.12-.16-.33-.18,23.27,8.15a2.14,2.14,0,0,1,.32.2,3,3,0,0,1-.34.46,1.62,1.62,0,0,1-.46.22L171.55,29.8c-.71.25-.57.58-1-.21-1-1.85-7.6-13.36-7.65-13.53A.56.56,0,0,1,163,15.68Zm-5.53,15c1.44-3.89,4.91-13.44,5.05-13.65.15.12-.2-.46,4.69,8.37l.08.17c-5.64,3.33-9,5.16-9.42,5.38s-.36.26-.45.17S157.4,30.83,157.44,30.7Z" fill="#000001"></path><path d="M150,74.68c.77,0-.42.1,19.05-1.51.55,0,1.06-.32.95-1,0,0-1.05-12.89-1.14-13.72,0-.41-.19-.53-.6-.51-.56,0-19.45,1.81-19.74,1.86a.7.7,0,0,0-.71.84c0,.56,1.43,12.35,1.57,13.48A.84.84,0,0,0,150,74.68Zm18.34-2.44c-.26.09-16.63,1.44-17.26,1.52-.31.06-.1-.17-.07-.2.72-.92,3.93-5.06,4.82-6.22.23-.3.23-.3.55-.09L159,69c.45.3.58.29,1-.1,0,0,2-2.07,2.13-2.21s.23-.16.4,0c.78.74,5.54,5.08,5.87,5.37C168.45,72.16,168.48,72.21,168.31,72.24Zm-.14-11.41s.71,9.71.75,10.12c0,.08.08.45-.27.12-3.28-2.83-5-4.52-5.46-5s-.32-.23,0-.55l4.61-4.84C168,60.47,168.14,60.47,168.17,60.83Zm-19.27-.22c.64-.1,18.66-1.67,18.76-1.68.47,0,.21.28.15.34-.55.58-7.11,7.48-8.23,8.69-.22.24-.36.1-.53,0-.91-.59-9.12-6-10.25-6.72C148.4,61,148.56,60.67,148.9,60.61Zm-.11,1.65c.55.3,5.3,3.53,6.22,4.12.2.13.19.22.06.38-.64.83-4.85,6.37-5,6.49,0-.09-.27-2.14-1.33-10.8Z" fill="#000001"></path><path d="M160.61,91.43c-.52-.13-16-3.21-17.79-3.54a.7.7,0,0,0-.95.62c-2.41,11.79-2.34,11.43-2.37,11.82,0,.92.49,1,.83,1.09,1.31.41,5.58,1.19,17.27,3.49.61.12.85.16,1-.45.34-1.66,2.19-11.07,2.41-12.15C161.07,91.89,161.12,91.56,160.61,91.43ZM140.4,99.74c.29-1.4,1.74-8.89,1.83-9.41,0-.23.14-.23.26-.08s.19.28,3.79,5c.19.21.08.31-.08.43l-5.56,4.16C140.58,99.86,140.32,100.13,140.4,99.74Zm16.74,4.19c-.11,0-14.65-2.87-15.74-3.08-.09,0-.39,0-.09-.28.74-.57,3.84-2.85,4.63-3.44.34-.25.71-.47,1.05-.72.15-.11.21,0,.29.08,1.53,2.06,1.56,2.07,1.84,2.47a.63.63,0,0,0,.79.27A27.7,27.7,0,0,0,153,97.66c.17-.09.26-.13.4.09.85,1.42,3.81,6,3.86,6.12S157.18,103.93,157.14,103.93Zm.86-.81c-.11-.14-3.44-5.55-3.7-5.9-.13-.17,0-.25.09-.32s5-2.7,5.23-2.79l.18,0C159.8,94.17,158.06,103,158,103.12Zm1.92-10.42c-.38.23-8.6,4.63-9.86,5.34-.23.13-.33,0-.42-.11L142.77,89a1.34,1.34,0,0,1-.07-.18l.19,0c18,3.58,17.15,3.26,17.23,3.5S160,92.62,159.92,92.7Z" fill="#000001"></path><path d="M120.39,77.89c0,1,.37,1.69,2,2.13,1,.25,21.28,4.82,23.81,5.35a2.53,2.53,0,0,0,1.83-.12c1.4-.79.92-2.24.66-3.38s-6.13-17.87-8.6-23.65a2.94,2.94,0,0,0-.82-1.1,1.89,1.89,0,0,0-2.49,0C135,58.53,123.67,73,122.3,74.78,121.43,75.9,120.45,77,120.39,77.89Zm16.83-20a1.14,1.14,0,0,1,1.6.13c1.09,1.27,8.43,21.6,9.22,24.85.23.94-.23,1.93-1.95,1.47-4.71-1.25-18.41-4-22.87-5a3.37,3.37,0,0,1-1.88-.86.85.85,0,0,1,0-.91C122,76.36,136.05,58.88,137.22,57.9Z" fill="#000001"></path><path d="M135.2,74.79c.81.13.79.11,1.05-.7s2.66-8.93,2.9-9.77c.16-.58,0-.73-.55-.82-2.81-.39-3.75-.85-3.74.39,0,.68-.57,5.79-.86,8.38a18.26,18.26,0,0,0-.14,2C133.92,74.52,134.17,74.64,135.2,74.79Z" fill="#000001"></path><path d="M114.15,35.25a.72.72,0,0,0,.88.63c.23,0,21-3.24,21.95-3.37.79-.11,1-.27,1.16-.92a1.75,1.75,0,0,0,0-.33c0-.18,0-.3,0-.42C138,30,136.06,17.6,136,17a9.08,9.08,0,0,0-.5-2.55c-.27-.37-1-.31-1.39-.24l-22.24,3.67a1,1,0,0,0-.78,1.15C111.17,19.7,113.88,33.87,114.15,35.25Zm.77-1c-.13-.38-2.43-12.85-2.45-12.95,0-.42.23,0,7,3.41.74.37.75.35.34,1.09C115,34.38,115.21,34,114.92,34.3Zm22.22-2.93-.21.07c-1.19.21-20.79,3.39-20.85,3.4s-.18-.11-.12-.23l5-8.72c.09-.18.18-.26.4-.13.54.31,3.06,1.6,3.76,2a3.12,3.12,0,0,0,.43.15.58.58,0,0,0,.77-.19l2-2.34c.16-.19.32-.5.51-.52s.41.25.61.4S137,31.14,137.14,31.37ZM135,17.19c0,.08,2,12.34,2,12.41s0,.1-.05.14c-.23-.14-5.12-3.95-7.17-5.53-.36-.27-.37-.28-.08-.62.8-1,4.2-5.12,5.09-6.2A2.09,2.09,0,0,1,135,17.19Zm-22.32,1.47c.93-.12,21.16-3.34,21.69-3.42.33-.05.39,0,.38.4-.17.48.14-.1-8.77,10.88-.23.29-.24.31-.57.14-.8-.4-4-2-4.85-2.4-1-.53.87.25-8-4.2a.73.73,0,0,1-.46-.65C112,18.74,112,18.75,112.68,18.66Z" fill="#000001"></path><path d="M135,79.71c.51.11.77-.1.78-.64,0-.37,0-1.84,0-2.2s-.12-.57-.56-.65l-1.11-.17c-.43-.06-.6,0-.75.44-.26.67-.5,1.34-.73,2S132.42,79.13,135,79.71Z" fill="#000001"></path><path d="M129.59,85.56c0-.64-.09-.83-.74-.89-.2,0-14.11-.14-15.69-.14a.54.54,0,0,0-.62.52c0,.16.09,10.18.11,11s.06.76,1.25.82,13,.45,15,.49c.65,0,.83,0,.81-.79C129.67,96.52,129.63,87.63,129.59,85.56Zm-16-.24c.12,0,14.09.23,14.45.22s.35.06.25.17c-.31.33-5.25,5.59-6.43,6.6-.24.21-.38.35-.64.13-2.34-1.92-7.07-6.34-7.74-6.86C113.18,85.37,113.34,85.33,113.56,85.32Zm.13,9.87c-.11.11-.18.11-.19-.06-.14-2.22-.16-8-.16-8a1.3,1.3,0,0,1,.07-.33c.38.28,1.59,1.38,4.53,3.94.23.19.24.24,0,.44C113.56,95.28,114.9,94,113.69,95.19Zm14.41,1.23c-.12,0-12.89-.38-13.69-.41-.28-.06-.51.21,4.19-4.09.33-.3.33-.29.66,0l1.62,1.41a.76.76,0,0,0,1.08.09c.45-.41.9-.83,1.34-1.26s.38-.37.73,0l4.14,4.1S128.27,96.45,128.1,96.42Zm.83-.81a60.92,60.92,0,0,1-4.4-4.29.29.29,0,0,1,0-.46c4.69-4.87,3.75-4,4.25-4.41a23.69,23.69,0,0,1,0,3.67h0C128.92,94.43,129,95.45,128.93,95.61Z" fill="#000001"></path><path d="M128.86,178.72c-2.34.78-3-.4-3.74-.87s-1.3-.5-3.48,1c-.72.49-4,3-4,1.1,0-2.85,1.45-8.41-1.95-6.27s-5.57,4-6.85,4.53a.45.45,0,0,0,.21.88c1.09-.17,2.78-1.54,6.86-4.36,2.34-1.62.36,2.56.8,5.65.28,1.94,2.67,1.48,5.19-.39,4.13-3.08,2.36.52,5.91.11a1.35,1.35,0,0,0,1.31-1C129.15,178.81,129.08,178.65,128.86,178.72Z" fill="#000001"></path><path d="M105.55,63.31c.1,0,17.08,4.93,18.07,5.12a.7.7,0,0,0,.85-.48c.14-.35,3.62-12.61,3.68-12.85.12-.45,0-.66-.36-.76-1.43-.36-18.76-4.65-19.18-4.73s-.59,0-.72.44c0,.15,0,.3-.09.45-3.12,12.43-3,11.7-2.85,12.26A.89.89,0,0,0,105.55,63.31Zm16.77,3.83c-7.33-2-14.56-4-15.89-4.4a.11.11,0,0,1,0-.2l6.8-4.09c.36-.24.22-.14,2.18,2.25.15.17.27.41.54.43a1.65,1.65,0,0,0,.7,0c.74-.29,1.47-.62,2.2-.95.41-.18.49-.34.7.06.91,1.7,3.64,6.87,3.65,7S122.94,67.31,122.32,67.14ZM126.72,57c-.44,1.52-2.18,7.67-2.62,9.22a2.62,2.62,0,0,1-.19.46c-.28-.46,1,1.74-3.57-6.7-.3-.56-.56-.14,5.82-3.06C126.79,56.56,126.75,56.9,126.72,57Zm-18.11-6.3c0-.07.09-.12.12-.16.32.1,13.14,3.39,18,4.51l.39.11c.14,0,.12.17,0,.24s-9.56,4.3-10.59,4.8a.3.3,0,0,1-.42-.07c-.43-.58-6.13-7.54-7.48-9.07C108.5,50.88,108.58,50.79,108.61,50.68Zm-.43,1.53a1.51,1.51,0,0,1,.11-.22.8.8,0,0,1,.19.13c5.17,6.4,1.51,1.76,4.24,5.25.12.15,0,.25-.09.33L106,61.76C105.65,62,105.73,62.56,108.18,52.21Z" fill="#000001"></path><path d="M116,81.85c.49,0,.53-.19.58-1.25,0-2.1.15-7.41.17-8.72,0-1-.34-.92-1.14-.92-1.77,0-12-.27-12.56-.2s-.52.61-.52.91c0,2.73-.16,8.18-.16,9.2,0,.56.32.55.88.57C113,81.77,114.5,82,116,81.85Zm0-8.48c-.12,4.73-.13,7.2-.14,7.26s-2.36-2.95-3.26-4.19a.34.34,0,0,1,.1-.51C114.82,74.23,116,73.08,116,73.37ZM103.74,71.6c1,0,10.3.22,11.79.17.34,0,.36.24.13.43s-4.94,4.15-5.47,4.6a.39.39,0,0,1-.49,0c-.6-.45-6-4.29-6.08-4.36a.52.52,0,0,1-.24-.47C103.37,71.65,103.4,71.61,103.74,71.6Zm-.53,8.48c0-.39.11-4.72.13-6.49,0-.22,0-.19.18-.09l3.28,2.36c.12.08.36.22.21.38-.48.53-2.73,3.2-3.54,4C103.42,80.3,103.2,80.38,103.21,80.08Zm1,.63c.11-.18,1.58-1.81,3.45-4,.13-.15.19-.16.35,0,.42.33.87.61,1.3.92a.88.88,0,0,0,1.25,0c1-.75,1-1.08,1.46-.59s2.57,3.1,3.13,3.79c0,.05.13.25-.22.24S104.57,80.84,104.18,80.71Z" fill="#000001"></path><path d="M108.48,117.45c.26-.24.19-.49-.13-.61s-27.13-7.2-27.85-7.39c-.52-.13-.6,0-1.06.3-8.09,4.78-8,4.62-8.19,4.9a.35.35,0,0,0,0,.31.36.36,0,0,0,.31.12c.2,0,6.44-3.69,8.16-4.81.2-.13.4-.31.69-.17,1.38.39,26.53,7.11,27,7.23.19,0,.11.11,0,.18s-5.64,4.59-6.94,5.68a.53.53,0,0,1-.55.12c-.41-.12-27.24-6.94-27.82-7.08s-.73.15-.61.39a.65.65,0,0,0,.45.3c6.3,1.57,27.5,7,28.33,7.18a2.38,2.38,0,0,0,.45-.23C101.25,123.51,107.44,118.4,108.48,117.45Z" fill="#000001"></path><path d="M87.05,139.33a.34.34,0,0,1,.47.1,4.47,4.47,0,0,0,.39.74.36.36,0,0,0,.52.15c.48-.26.34-.36-.12-1.43.3-.14.62-.27.92-.43.14-.08.16,0,.21.08.39.76.49,1.07,1,.81.25-.12.2-.33.13-.52-.24-.77-.53-.74,0-1,1.1-.47.54-.13,1.28.73.18.21.37.2.64,0s.18-.31.1-.5c-.34-.78-.68-.91-.23-1.12s1.09-.54,1.66-.78c.86-.36.66-.39,1.28.19a2.41,2.41,0,0,0,3.31-.25c.53-.61.36-1.38.41-2.1a.3.3,0,0,0-.05-.15,2.26,2.26,0,0,0-3-1.35,2,2,0,0,0-1.21.88c-.83,1.51.17,1.57-.61,1.89s-1.53.63-2.29,1c-.23.11-.31,0-.4-.14-.52-.92-.53-1-.91-.85s-.4.28-.1.81c.36.71.36.71-.38,1-.49.17-.27,0-.91-.86a.3.3,0,0,0-.49,0,.43.43,0,0,0-.14.55c.1.2.2.4.32.59s-.1.31-1,.65c-.11.05-.17.05-.24-.08s-.29-.49-.43-.75a.39.39,0,0,0-.5-.24.41.41,0,0,0-.24.58c.26.71.55.84.15,1-2,.79-3.31,1.46-3.61,1.52.06-.22.15-.23.23-.35a3,3,0,0,0,.53-1.94c0-.34-.29-.62-.57-.6-.5,0-1.23.26-1.08.73a.42.42,0,0,0,.5.27c.3,0,.21.14.17.28-.28,1-.76,1.27-1.31,2.05a.71.71,0,0,0,.54,1.17,9.94,9.94,0,0,1,3.07.64c.09,0,.14.15.2.23a1.84,1.84,0,0,0-.22.17c-.13.12-.35.24-.36.38s.15.32.29.43c.47.29,1.39-.28,1.24-1.13a1.6,1.6,0,0,0-1.26-1.14c-.63-.17-1.27-.25-1.54-.37C83.88,140.6,86.87,139.4,87.05,139.33Zm8.56-5.53a1.35,1.35,0,0,1,1.79-.31c.6.44.67.34.7,1.08,0,.2,0,.45-.06.7-.14.92-1.83,1.2-2.49.09A1.49,1.49,0,0,1,95.61,133.8Z" fill="#000001"></path><path d="M71.35,44.55c.48,1.19,4.83,11.81,5.59,13.7a.76.76,0,0,0,1.14.48c.15-.06,17.51-6.94,18.37-7.4a.93.93,0,0,1,.29,0,.59.59,0,0,0,.57-.77c0-.25-4.91-14.09-5-14.21-.14-.39-.29-.49-.78-.5a2.57,2.57,0,0,0-.55.12c-.75.27-17.9,7.16-19.3,7.73A.61.61,0,0,0,71.35,44.55ZM77.6,57.13c-.16-.16.3.88-4.49-10.79a1.85,1.85,0,0,1,0-.23.65.65,0,0,1,.24,0c8,2.25,7.54,2,7.76,2.28C81,48.68,77.62,57.08,77.6,57.13Zm1.07.3s-.11-.1-.1-.13c.46-1.15,2.7-6.63,3.34-8.23.19-.46.19-.47.66-.35l2.81.78c1,.26,1,0,2.2-2.26.18-.32.18-.33.51-.17l7,3.32c.21.11.29.13.36.26C95,50.85,78.69,57.44,78.67,57.43ZM92.2,38.91a2.15,2.15,0,0,1,.14.26c.08.22,3.38,9.93,3.57,10.4-.07,0-.14.08-.18.06l-7.14-3.41c-.35-.17-.35-.21-.17-.53C92.12,39,91.89,39.21,92.2,38.91ZM72.64,44.38c1-.42,18.13-7.21,18.59-7.39.3-.13.34-.11.42.21,0,.07,0,.14,0,.24-.14.39-4.75,8.79-5.74,10.73a.4.4,0,0,1-.5.25c-.4-.13-12.8-3.5-12.8-3.5a.71.71,0,0,1-.24-.35S72.55,44.42,72.64,44.38Z" fill="#000001"></path><path d="M95.1,71.82c.29.27.79-.28.18-.81-2.77-2.41-5.92-9.47-6.53-13.86a.6.6,0,0,0-.53-.55.4.4,0,0,0-.33.34C87.74,58.15,90.33,67.45,95.1,71.82Z" fill="#000001"></path><path d="M86.86,59.2c-.11-.46-.77-.51-.78.15.42,2.58,4,12.05,7.66,14.23.49.29,1-.23.34-.66C91,70.71,87.93,63.6,86.86,59.2Z" fill="#000001"></path><path d="M90.42,156.27c-1.82,5.06-1.3,4.75-5.31,12.1-2.11,3.88-4.55,5.47-5.49,7.13a.54.54,0,0,0,0,.71c.18.13.49,0,.71-.24,2.24-2.74,3.87-3.64,6.48-8.71a52.25,52.25,0,0,0,4.35-10.5C91.55,155.74,90.67,155.58,90.42,156.27Z" fill="#000001"></path><path d="M85.64,155c.21-.35-.33-.75-.61-.47s-.25.35-2.55,3.74c-3.36,4.95-4.25,4.74-5,6.66,0,.05,0,.15.08.23l.18-.1c1.26-.42,4.43-4.78,5.17-5.86C83.43,158.4,84.79,156.39,85.64,155Z" fill="#000001"></path><path d="M77.16,157.06c-1.87,2.25-14.95,12-14.95,12-.11.26,0,.39.23.39l.25-.06c.52-.09,9.46-6.78,9.48-6.8.49-.39,5.7-4.61,5.64-5.39C78,156.84,77.36,156.82,77.16,157.06Z" fill="#000001"></path><path d="M50.63,108.23c3.93,4.48,12.2,12.14,17.38,13.35.47.11,1.06-.5.17-.87-5.92-2.46-13.05-8.63-16.81-13.15-3.56-4.3-3.09-4.54-3.64-4.45s-.56.43-.29.86A35.81,35.81,0,0,0,50.63,108.23Z" fill="#000001"></path><path d="M58.33,41.73c.28.07.39-.1.51-.3a1.2,1.2,0,0,1,1.24-.72c.66.07,1.06.58,1.39,1.21a.5.5,0,0,0,.87,0,.87.87,0,0,0,0-.77,2.81,2.81,0,0,0-2.44-1.58,5.06,5.06,0,0,0-1,.32,1.74,1.74,0,0,0-.88,1.4C58,41.61,58.05,41.67,58.33,41.73Z" fill="#000001"></path><path d="M58.37,60.06c-.29-.26-.52-.18-.81.09a1.47,1.47,0,0,1-.59.38c-1.55.38-2.27.08-3.23,1-1.94,2-2.42,4-2.14,5.43.38,1.9,1.4,3.36,4.4,3.58,1.41-.17,2.36-.13,3.21-1.11a5.09,5.09,0,0,0,2-2.82c.29-1.67,1.05-4,.12-5.29S59.1,60.74,58.37,60.06Zm2.44,4.11c-.19.69-.31,1.39-.45,2.09-.31,1.51-1.27,1.84-1.78,2.47-.68.85-1.61.8-2.88.93-1.65-.33-2.9-.92-3.22-2.59a5.19,5.19,0,0,1,1.9-4.85c1.15-1.08,2.07-.17,3.54-1.08a.34.34,0,0,1,.26,0C58.75,61.39,61.66,61.08,60.81,64.17Z" fill="#000001"></path><path d="M59.74,47.58c-.32,0-.36.24-.45.46-.2.52,0,1.27.53,1.33s.74-.17.8-.72C60.41,47.86,60.46,47.6,59.74,47.58Z" fill="#000001"></path><path d="M56,62.92a3.36,3.36,0,0,0-.41,4,1.7,1.7,0,0,0,2.71,0,3.32,3.32,0,0,0,.35-4.09A1.73,1.73,0,0,0,56,62.92Zm1.81.66-1.15.21c-.14,0-.17,0-.12-.15.3-.73,1.31-.83,1.43-.15C57.93,63.59,57.82,63.57,57.76,63.58Z" fill="#000001"></path><path d="M46.57,109.22c1.37,3.65,5.84,10.4,11.35,14.77.81.65,1,.07.56-.36-7.81-7.1-10.2-13.66-11.11-14.91C47,108.18,46.38,108.72,46.57,109.22Z" fill="#000001"></path><path d="M48.08,44.14a1.12,1.12,0,0,0,.43-.16.47.47,0,0,0,.11-.31A2.13,2.13,0,0,1,49.48,42a2.76,2.76,0,0,1,3.57-.1c.2.14.44.22.62.07s.34-.6.14-.8c-1.75-1.92-5.93-.78-6.1,2.13.08.23.15.48.23.71C48,44.07,48.05,44.15,48.08,44.14Z" fill="#000001"></path><path d="M40.88,30.25a6.36,6.36,0,0,1,.95-1.78c.19-.24.23-.24.36,0,1.47,3.16,8.05,2.5,10.21-1.13a3.4,3.4,0,0,0,.28-3.32.24.24,0,0,1,.06-.33,2.29,2.29,0,0,1,.88-.54c.5-.08.55-1.46-1.3-.11-.15.11-.17.17-.38,0-3.1-2.63-9.71-.11-10,3.69a1.73,1.73,0,0,1-.43,1.06,6.37,6.37,0,0,0-1.13,2.27C40.22,30.66,40.68,30.85,40.88,30.25Zm1.93-4.1a5.91,5.91,0,0,1,4.79-3.3,4.38,4.38,0,0,1,3.67.59c.5.35.19.58,0,.81s-.21.29-.44,0A1.23,1.23,0,0,0,49.05,24a6,6,0,0,0-1.82,2.3c-.4-.86-.95-1.63-2.21-1.26a9.54,9.54,0,0,0-2.19,1.27S42.79,26.17,42.81,26.15Zm0,1.14A7.69,7.69,0,0,1,45,25.77a.78.78,0,0,1,1.16.38c.6,1,.55,1.47.94,1.49a.43.43,0,0,0,.46-.33,5.61,5.61,0,0,1,1.52-2.45c.73-.72,1-.47,1.43.42a.73.73,0,0,1,.06.58.36.36,0,1,0,.66.31A3.77,3.77,0,0,1,52,24.66c.71,1.39-.85,4.43-5.06,5-1.67.25-3.82-.33-4.26-2A.39.39,0,0,1,42.82,27.29Z" fill="#000001"></path><path d="M52.37,49.28a.62.62,0,0,0-1,.32,3.53,3.53,0,0,0-.13.54,1.37,1.37,0,0,0,.32.91.7.7,0,0,0,1.16-.12A1.69,1.69,0,0,0,52.37,49.28Z" fill="#000001"></path><path d="M40.51,55.86A.42.42,0,0,0,41,55.4c0-.36-.19-.58-.5-.58a.42.42,0,0,0-.48.39C40,55.36,40.05,55.85,40.51,55.86Z" fill="#000001"></path><path d="M40.51,53.53c.55,0,.54-.86.07-.84s-.43.1-.42.37S40.3,53.54,40.51,53.53Z" fill="#000001"></path><path d="M39,53.5a.37.37,0,0,0-.42.39c0,.23.22.59.39.6a.47.47,0,0,0,.5-.45h0A.46.46,0,0,0,39,53.5Z" fill="#000001"></path><path d="M39,48.84a.37.37,0,1,0,.12.74c.27,0,.27-.24.3-.41S39.22,48.83,39,48.84Z" fill="#000001"></path><path d="M38.94,47.28a.44.44,0,0,0,.44-.46c0-.38-.15-.55-.5-.56s-.36.06-.38.44S38.69,47.28,38.94,47.28Z" fill="#000001"></path><path d="M38.89,52.08a.41.41,0,0,0,.45-.43.47.47,0,0,0-.46-.55C38.26,51.07,38.26,52.1,38.89,52.08Z" fill="#000001"></path><path d="M38.66,56.83a.49.49,0,0,0,.49-.48q0-.52-.45-.54a.4.4,0,0,0-.47.46C38.24,56.53,38.47,56.83,38.66,56.83Z" fill="#000001"></path><path d="M37.63,42.66a.57.57,0,0,0,.09-1.12C37.1,41.45,37,42.57,37.63,42.66Z" fill="#000001"></path><path d="M37.66,44.26a.42.42,0,0,0-.46.44c0,.25.35.69.56.68s.39-.14.39-.52A.54.54,0,0,0,37.66,44.26Z" fill="#000001"></path><path d="M37.57,47.09c-.27,0-.4.13-.4.41a.5.5,0,0,0,.4.51.41.41,0,0,0,.42-.46A.4.4,0,0,0,37.57,47.09Z" fill="#000001"></path><path d="M37.13,51.72c-.29,0-.44.21-.43.57a.5.5,0,0,0,.43.54c.28,0,.47-.21.47-.54S37.43,51.7,37.13,51.72Z" fill="#000001"></path><path d="M37.15,50.33c.3,0,.45-.15.44-.43,0-.59-.9-.6-.91-.06C36.67,50.2,36.85,50.34,37.15,50.33Z" fill="#000001"></path><path d="M36.41,54.9c0,.66.94.75.87.18C37.3,54.3,36.38,54.37,36.41,54.9Z" fill="#000001"></path><path d="M35.42,46.57a.57.57,0,0,0,0-1.14C34.67,45.37,34.77,46.45,35.42,46.57Z" fill="#000001"></path><path d="M35.34,43.59c.31,0,.42-.11.44-.48s-.16-.4-.46-.42-.38.09-.39.39S35.05,43.58,35.34,43.59Z" fill="#000001"></path><path d="M35.5,61.81c-1.12.15-1.11-.44-.78-.84.92-1.1.72-2,.26-2.53a4.62,4.62,0,0,0-2.53-1.64c-1.14-.24-2.16.68-1.55,2.34.12.41.84.52.85-.11s-.25-1.25.33-1.24c.8,0,2.64,1.38,2.22,2.1-.34.56-1,1-.75,1.86s.71,1.31,2.07,1C36.22,62.58,36.18,61.71,35.5,61.81Z" fill="#000001"></path><path d="M35.17,49.16a.54.54,0,0,0,.54-.48c0-.46-.18-.67-.52-.66C34.59,48,34.55,49.16,35.17,49.16Z" fill="#000001"></path><path d="M35,51.4a.44.44,0,0,0,.47-.52c0-.31-.14-.44-.43-.43s-.47.17-.46.47A.48.48,0,0,0,35,51.4Z" fill="#000001"></path><path d="M35.37,53.35c0-.34-.18-.51-.5-.49s-.4.19-.4.49.16.45.49.44S35.38,53.67,35.37,53.35Z" fill="#000001"></path><path d="M33.21,43.79a.42.42,0,0,0-.5.37c0,.27.24.7.45.7a.51.51,0,0,0,.52-.49C33.7,44,33.55,43.81,33.21,43.79Z" fill="#000001"></path><path d="M33.05,49.12c-.65,0-.43,1,0,1.06a.46.46,0,0,0,.5-.4A.57.57,0,0,0,33.05,49.12Z" fill="#000001"></path><path d="M33,47.5a.51.51,0,0,0,.53-.54c0-.64-1-.71-1.05-.14A.63.63,0,0,0,33,47.5Z" fill="#000001"></path><path d="M32.76,51.55c-.23,0-.34.12-.34.4s.14.45.32.44.48-.14.44-.38S33.06,51.57,32.76,51.55Z" fill="#000001"></path><path d="M31.33,50.18c-.29,0-.28.17-.26.34s.13.49.34.48A.42.42,0,0,0,31.33,50.18Z" fill="#000001"></path><path d="M30.83,46.12c.41,0,.5-.09.51-.45s-.12-.56-.43-.56a.51.51,0,0,0-.08,1Z" fill="#000001"></path><path d="M30.73,47.73c-.22,0-.36.19-.36.46s.12.43.33.43a.39.39,0,0,0,.4-.42C31.1,48,30.91,47.72,30.73,47.73Z" fill="#000001"></path></g></g></svg>